<svg xmlns="http://www.w3.org/2000/svg" width="133.207" height="62.606" viewBox="0 0 133.207 62.606"><defs><style>.a{opacity:0.24;}.b{fill:none;stroke:#00c379;stroke-miterlimit:10;}</style></defs><g class="a" transform="translate(-371.131 8.254)"><path class="b" d="M498.544,51.2a2.647,2.647,0,1,1,2.647,2.648A2.647,2.647,0,0,1,498.544,51.2Z"/><path class="b" d="M484.454,51.2a2.647,2.647,0,1,1,2.647,2.648A2.647,2.647,0,0,1,484.454,51.2Z"/><path class="b" d="M470.364,51.2a2.647,2.647,0,1,1,2.647,2.648A2.647,2.647,0,0,1,470.364,51.2Z"/><path class="b" d="M456.274,51.2a2.648,2.648,0,1,1,2.647,2.648A2.647,2.647,0,0,1,456.274,51.2Z"/><circle class="b" cx="2.647" cy="2.647" r="2.647" transform="translate(442.184 48.557)"/><path class="b" d="M428.094,51.2a2.648,2.648,0,1,1,2.647,2.648A2.647,2.647,0,0,1,428.094,51.2Z"/><path class="b" d="M414,51.2a2.648,2.648,0,1,1,2.648,2.648A2.647,2.647,0,0,1,414,51.2Z"/><path class="b" d="M399.914,51.2a2.648,2.648,0,1,1,2.648,2.648A2.647,2.647,0,0,1,399.914,51.2Z"/><circle class="b" cx="2.647" cy="2.647" r="2.647" transform="translate(385.824 48.557)"/><circle class="b" cx="2.647" cy="2.647" r="2.647" transform="translate(371.734 48.557)"/><path class="b" d="M498.544,37.155a2.647,2.647,0,1,1,2.647,2.647A2.648,2.648,0,0,1,498.544,37.155Z"/><path class="b" d="M484.454,37.155A2.647,2.647,0,1,1,487.1,39.8,2.648,2.648,0,0,1,484.454,37.155Z"/><path class="b" d="M470.364,37.155a2.647,2.647,0,1,1,2.647,2.647A2.648,2.648,0,0,1,470.364,37.155Z"/><path class="b" d="M456.274,37.155a2.648,2.648,0,1,1,2.647,2.647A2.648,2.648,0,0,1,456.274,37.155Z"/><circle class="b" cx="2.647" cy="2.647" r="2.647" transform="translate(442.184 34.507)"/><path class="b" d="M428.094,37.155a2.648,2.648,0,1,1,2.647,2.647A2.648,2.648,0,0,1,428.094,37.155Z"/><path class="b" d="M414,37.155a2.648,2.648,0,1,1,2.648,2.647A2.648,2.648,0,0,1,414,37.155Z"/><path class="b" d="M399.914,37.155a2.648,2.648,0,1,1,2.648,2.647A2.648,2.648,0,0,1,399.914,37.155Z"/><circle class="b" cx="2.647" cy="2.647" r="2.647" transform="translate(385.824 34.507)"/><circle class="b" cx="2.647" cy="2.647" r="2.647" transform="translate(371.734 34.507)"/><path class="b" d="M498.544,23.1a2.647,2.647,0,1,1,2.647,2.647A2.648,2.648,0,0,1,498.544,23.1Z"/><path class="b" d="M484.454,23.1a2.647,2.647,0,1,1,2.647,2.647A2.648,2.648,0,0,1,484.454,23.1Z"/><path class="b" d="M470.364,23.1a2.647,2.647,0,1,1,2.647,2.647A2.648,2.648,0,0,1,470.364,23.1Z"/><path class="b" d="M456.274,23.1a2.648,2.648,0,1,1,2.647,2.647A2.648,2.648,0,0,1,456.274,23.1Z"/><circle class="b" cx="2.647" cy="2.647" r="2.647" transform="translate(442.184 20.457)"/><path class="b" d="M428.094,23.1a2.648,2.648,0,1,1,2.647,2.647A2.648,2.648,0,0,1,428.094,23.1Z"/><path class="b" d="M414,23.1a2.648,2.648,0,1,1,2.648,2.647A2.648,2.648,0,0,1,414,23.1Z"/><path class="b" d="M399.914,23.1a2.648,2.648,0,1,1,2.648,2.647A2.648,2.648,0,0,1,399.914,23.1Z"/><circle class="b" cx="2.647" cy="2.647" r="2.647" transform="translate(385.824 20.457)"/><circle class="b" cx="2.647" cy="2.647" r="2.647" transform="translate(371.734 20.457)"/><path class="b" d="M498.544,9.055a2.647,2.647,0,1,1,2.647,2.647A2.648,2.648,0,0,1,498.544,9.055Z"/><path class="b" d="M484.454,9.055A2.647,2.647,0,1,1,487.1,11.7,2.648,2.648,0,0,1,484.454,9.055Z"/><path class="b" d="M470.364,9.055a2.647,2.647,0,1,1,2.647,2.647A2.648,2.648,0,0,1,470.364,9.055Z"/><path class="b" d="M456.274,9.055a2.648,2.648,0,1,1,2.647,2.647A2.648,2.648,0,0,1,456.274,9.055Z"/><path class="b" d="M442.184,9.055a2.648,2.648,0,1,1,2.647,2.647A2.648,2.648,0,0,1,442.184,9.055Z"/><path class="b" d="M428.094,9.055a2.648,2.648,0,1,1,2.647,2.647A2.648,2.648,0,0,1,428.094,9.055Z"/><path class="b" d="M414,9.055a2.648,2.648,0,1,1,2.648,2.647A2.648,2.648,0,0,1,414,9.055Z"/><path class="b" d="M399.914,9.055a2.648,2.648,0,1,1,2.648,2.647A2.648,2.648,0,0,1,399.914,9.055Z"/><path class="b" d="M385.824,9.055a2.647,2.647,0,1,1,2.648,2.647A2.649,2.649,0,0,1,385.824,9.055Z"/><path class="b" d="M371.734,9.055a2.647,2.647,0,1,1,2.648,2.647A2.649,2.649,0,0,1,371.734,9.055Z"/><path class="b" d="M498.544-4.995a2.647,2.647,0,0,1,2.647-2.647,2.647,2.647,0,0,1,2.647,2.647,2.647,2.647,0,0,1-2.647,2.647A2.647,2.647,0,0,1,498.544-4.995Z"/><path class="b" d="M484.454-4.995A2.647,2.647,0,0,1,487.1-7.642a2.647,2.647,0,0,1,2.647,2.647A2.647,2.647,0,0,1,487.1-2.348,2.647,2.647,0,0,1,484.454-4.995Z"/><path class="b" d="M470.364-4.995a2.647,2.647,0,0,1,2.647-2.647,2.648,2.648,0,0,1,2.648,2.647,2.648,2.648,0,0,1-2.648,2.647A2.647,2.647,0,0,1,470.364-4.995Z"/><path class="b" d="M456.274-4.995a2.647,2.647,0,0,1,2.647-2.647,2.648,2.648,0,0,1,2.648,2.647,2.648,2.648,0,0,1-2.648,2.647A2.647,2.647,0,0,1,456.274-4.995Z"/><circle class="b" cx="2.647" cy="2.647" r="2.647" transform="translate(442.09 -2.445) rotate(-87.936)"/><path class="b" d="M428.094-4.995a2.647,2.647,0,0,1,2.647-2.647,2.647,2.647,0,0,1,2.648,2.647,2.647,2.647,0,0,1-2.648,2.647A2.647,2.647,0,0,1,428.094-4.995Z"/><path class="b" d="M414-4.995a2.647,2.647,0,0,1,2.648-2.647A2.647,2.647,0,0,1,419.3-4.995a2.647,2.647,0,0,1-2.647,2.647A2.647,2.647,0,0,1,414-4.995Z"/><path class="b" d="M399.914-4.995a2.647,2.647,0,0,1,2.648-2.647,2.647,2.647,0,0,1,2.647,2.647,2.647,2.647,0,0,1-2.647,2.647A2.647,2.647,0,0,1,399.914-4.995Z"/><circle class="b" cx="2.647" cy="2.647" r="2.647" transform="matrix(0.033, -0.999, 0.999, 0.033, 385.738, -2.437)"/><circle class="b" cx="2.647" cy="2.647" r="2.647" transform="matrix(0.033, -0.999, 0.999, 0.033, 371.648, -2.437)"/></g></svg>