<svg xmlns="http://www.w3.org/2000/svg" width="121.248" height="34.891" viewBox="0 0 121.248 34.891"><defs><style>.a{opacity:0.24;}.b{fill:#ebe0ff;}.c{fill:#673ab7;}</style></defs><g class="a" transform="translate(121.248 34.891) rotate(180)"><rect class="b" width="111.6" height="27.842" transform="translate(9.648 0)"/><g transform="translate(0 9.044)"><g transform="translate(0 21.749)"><path class="c" d="M4.1,2.049A2.049,2.049,0,1,0,2.049,4.1,2.049,2.049,0,0,0,4.1,2.049Z"/><path class="c" d="M4.1,2.049A2.049,2.049,0,1,0,2.049,4.1,2.049,2.049,0,0,0,4.1,2.049Z" transform="translate(10.905)"/><path class="c" d="M4.1,2.049A2.049,2.049,0,1,0,2.049,4.1,2.049,2.049,0,0,0,4.1,2.049Z" transform="translate(21.81)"/><path class="c" d="M4.1,2.049A2.049,2.049,0,1,0,2.049,4.1,2.049,2.049,0,0,0,4.1,2.049Z" transform="translate(32.715)"/><path class="c" d="M4.1,2.049A2.049,2.049,0,1,0,2.049,4.1,2.049,2.049,0,0,0,4.1,2.049Z" transform="translate(43.621)"/><path class="c" d="M4.1,2.049A2.049,2.049,0,1,0,2.049,4.1,2.049,2.049,0,0,0,4.1,2.049Z" transform="translate(54.526)"/><path class="c" d="M4.1,2.049A2.049,2.049,0,1,0,2.049,4.1,2.049,2.049,0,0,0,4.1,2.049Z" transform="translate(65.431)"/><path class="c" d="M4.1,2.049A2.049,2.049,0,1,0,2.049,4.1,2.049,2.049,0,0,0,4.1,2.049Z" transform="translate(76.336)"/><path class="c" d="M4.1,2.049A2.049,2.049,0,1,0,2.049,4.1,2.049,2.049,0,0,0,4.1,2.049Z" transform="translate(87.241)"/><path class="c" d="M4.1,2.049A2.049,2.049,0,1,0,2.049,4.1,2.049,2.049,0,0,0,4.1,2.049Z" transform="translate(98.147)"/></g><g transform="translate(0 10.874)"><path class="c" d="M4.1,2.049A2.049,2.049,0,1,0,2.049,4.1,2.05,2.05,0,0,0,4.1,2.049Z"/><path class="c" d="M4.1,2.049A2.049,2.049,0,1,0,2.049,4.1,2.049,2.049,0,0,0,4.1,2.049Z" transform="translate(10.905)"/><path class="c" d="M4.1,2.049A2.049,2.049,0,1,0,2.049,4.1,2.049,2.049,0,0,0,4.1,2.049Z" transform="translate(21.81)"/><path class="c" d="M4.1,2.049A2.049,2.049,0,1,0,2.049,4.1,2.049,2.049,0,0,0,4.1,2.049Z" transform="translate(32.715)"/><path class="c" d="M4.1,2.049A2.049,2.049,0,1,0,2.049,4.1,2.05,2.05,0,0,0,4.1,2.049Z" transform="translate(43.621)"/><path class="c" d="M4.1,2.049A2.049,2.049,0,1,0,2.049,4.1,2.05,2.05,0,0,0,4.1,2.049Z" transform="translate(54.526)"/><ellipse class="c" cx="2.049" cy="2.049" rx="2.049" ry="2.049" transform="translate(65.431 0)"/><ellipse class="c" cx="2.049" cy="2.049" rx="2.049" ry="2.049" transform="translate(76.336 0)"/><ellipse class="c" cx="2.049" cy="2.049" rx="2.049" ry="2.049" transform="translate(87.241 0)"/><ellipse class="c" cx="2.049" cy="2.049" rx="2.049" ry="2.049" transform="translate(98.147 0)"/></g><path class="c" d="M4.1,2.049A2.049,2.049,0,1,0,2.049,4.1,2.05,2.05,0,0,0,4.1,2.049Z"/><path class="c" d="M4.1,2.049A2.049,2.049,0,1,0,2.049,4.1,2.049,2.049,0,0,0,4.1,2.049Z" transform="translate(10.905)"/><path class="c" d="M4.1,2.049A2.049,2.049,0,1,0,2.049,4.1,2.049,2.049,0,0,0,4.1,2.049Z" transform="translate(21.81)"/><path class="c" d="M4.1,2.049A2.049,2.049,0,1,0,2.049,4.1,2.049,2.049,0,0,0,4.1,2.049Z" transform="translate(32.715)"/><path class="c" d="M4.1,2.049A2.049,2.049,0,1,0,2.049,4.1,2.05,2.05,0,0,0,4.1,2.049Z" transform="translate(43.621)"/><path class="c" d="M4.1,2.049A2.049,2.049,0,1,0,2.049,4.1,2.05,2.05,0,0,0,4.1,2.049Z" transform="translate(54.526)"/><ellipse class="c" cx="2.049" cy="2.049" rx="2.049" ry="2.049" transform="translate(65.431 0)"/><ellipse class="c" cx="2.049" cy="2.049" rx="2.049" ry="2.049" transform="translate(76.336 0)"/><ellipse class="c" cx="2.049" cy="2.049" rx="2.049" ry="2.049" transform="translate(87.241 0)"/><ellipse class="c" cx="2.049" cy="2.049" rx="2.049" ry="2.049" transform="translate(98.147 0)"/></g></g></svg>