<svg xmlns="http://www.w3.org/2000/svg" width="120" height="120" viewBox="0 0 120 120"><defs><style>.a{fill:#f2ebff;}.b{fill:#fff;}.c{fill:#472b29;}.d{fill:#be7841;}.e{fill:#f1bc19;}</style></defs><g transform="translate(-11 -11)"><path class="a" d="M14.077,27a3.077,3.077,0,1,0,3.077,3.077A3.077,3.077,0,0,0,14.077,27Z" transform="translate(0 8.615)"/><path class="a" d="M77.538,12a1.538,1.538,0,1,0,1.538,1.538A1.538,1.538,0,0,0,77.538,12Z" transform="translate(35 0.538)"/><path class="a" d="M69.923,13a56.923,56.923,0,1,0,56.923,56.923A56.923,56.923,0,0,0,69.923,13Z" transform="translate(1.077 1.077)"/><path class="a" d="M85.154,11a6.154,6.154,0,1,0,6.154,6.154A6.154,6.154,0,0,0,85.154,11Z" transform="translate(36.615)"/><path class="a" d="M88.077,22a3.077,3.077,0,1,0,3.077,3.077A3.077,3.077,0,0,0,88.077,22Z" transform="translate(39.846 5.923)"/><path class="b" d="M118.692,82.077a3.077,3.077,0,1,0,3.077,3.077A3.077,3.077,0,0,0,118.692,82.077ZM17.154,59a6.154,6.154,0,1,0,6.154,6.154A6.154,6.154,0,0,0,17.154,59Z" transform="translate(0 25.846)"/><path class="a" d="M26.077,85a3.077,3.077,0,1,0,3.077,3.077A3.077,3.077,0,0,0,26.077,85Z" transform="translate(6.462 39.846)"/><path class="b" d="M19.846,51a3.846,3.846,0,1,0,3.846,3.846A3.846,3.846,0,0,0,19.846,51Z" transform="translate(2.692 21.538)"/><path class="b" d="M21.538,66a1.538,1.538,0,1,0,1.538,1.538A1.538,1.538,0,0,0,21.538,66Z" transform="translate(4.846 29.615)"/><path class="b" d="M80.538,33a1.538,1.538,0,1,0,1.538,1.538A1.538,1.538,0,0,0,80.538,33Z" transform="translate(36.615 11.846)"/><path class="c" d="M54.7,28.154a9.775,9.775,0,0,1,9.763,9.763V38.7A9.775,9.775,0,0,1,54.7,48.462h-.782A9.775,9.775,0,0,1,44.154,38.7v-.782a9.775,9.775,0,0,1,9.763-9.763H54.7M54.7,26h-.782A11.953,11.953,0,0,0,42,37.917V38.7A11.953,11.953,0,0,0,53.917,50.615H54.7A11.953,11.953,0,0,0,66.615,38.7v-.782A11.953,11.953,0,0,0,54.7,26Z" transform="translate(16.692 8.077)"/><g transform="translate(32.538 44.846)"><path class="d" d="M30.777,91.546A5.082,5.082,0,0,1,25.7,86.469V38.777A5.083,5.083,0,0,1,30.777,33.7H95.392a5.082,5.082,0,0,1,5.077,5.077V86.469a5.083,5.083,0,0,1-5.077,5.077Z" transform="translate(-24.623 -32.623)"/><path class="c" d="M95.769,35.154a4,4,0,0,1,4,4V86.846a4,4,0,0,1-4,4H31.154a4,4,0,0,1-4-4V39.154a4,4,0,0,1,4-4H95.769m0-2.154H31.154A6.154,6.154,0,0,0,25,39.154V86.846A6.154,6.154,0,0,0,31.154,93H95.769a6.154,6.154,0,0,0,6.154-6.154V39.154A6.154,6.154,0,0,0,95.769,33Z" transform="translate(-25 -33)"/></g><g transform="translate(32.538 43.308)"><path class="d" d="M38.277,61.315A12.591,12.591,0,0,1,25.7,48.738V37.777A5.083,5.083,0,0,1,30.777,32.7H95.392a5.082,5.082,0,0,1,5.077,5.077V48.738A12.591,12.591,0,0,1,87.892,61.315Z" transform="translate(-24.623 -31.623)"/><path class="c" d="M95.769,34.154a4,4,0,0,1,4,4V49.115a11.512,11.512,0,0,1-11.5,11.5H38.654a11.512,11.512,0,0,1-11.5-11.5V38.154a4,4,0,0,1,4-4H95.769m0-2.154H31.154A6.154,6.154,0,0,0,25,38.154V49.115A13.654,13.654,0,0,0,38.654,62.769H88.269a13.654,13.654,0,0,0,13.654-13.654V38.154A6.154,6.154,0,0,0,95.769,32Z" transform="translate(-25 -32)"/></g><g transform="translate(46.385 66.385)"><path class="e" d="M36.851,57.853A2.153,2.153,0,0,1,34.7,55.7V49.852A2.153,2.153,0,0,1,36.851,47.7h2.775a2.153,2.153,0,0,1,2.151,2.151V55.7a2.153,2.153,0,0,1-2.151,2.151Z" transform="translate(-33.623 -46.623)"/><path class="c" d="M40,49.154a1.075,1.075,0,0,1,1.074,1.074V56.08A1.075,1.075,0,0,1,40,57.154H37.228a1.075,1.075,0,0,1-1.074-1.074V50.228a1.075,1.075,0,0,1,1.074-1.074H40M40,47H37.228A3.227,3.227,0,0,0,34,50.228V56.08a3.227,3.227,0,0,0,3.228,3.228H40a3.227,3.227,0,0,0,3.228-3.228V50.228A3.227,3.227,0,0,0,40,47Z" transform="translate(-34 -47)"/></g><g transform="translate(86.385 66.385)"><path class="e" d="M62.851,57.853A2.153,2.153,0,0,1,60.7,55.7V49.852A2.153,2.153,0,0,1,62.851,47.7h2.775a2.153,2.153,0,0,1,2.151,2.151V55.7a2.153,2.153,0,0,1-2.151,2.151Z" transform="translate(-59.623 -46.623)"/><path class="c" d="M66,49.154a1.075,1.075,0,0,1,1.074,1.074V56.08A1.075,1.075,0,0,1,66,57.154H63.228a1.075,1.075,0,0,1-1.074-1.074V50.228a1.075,1.075,0,0,1,1.074-1.074H66M66,47H63.228A3.227,3.227,0,0,0,60,50.228V56.08a3.227,3.227,0,0,0,3.228,3.228H66a3.227,3.227,0,0,0,3.228-3.228V50.228A3.227,3.227,0,0,0,66,47Z" transform="translate(-60 -47)"/></g><g transform="translate(90.231 49.366)"><path class="c" d="M67.885,37.476H63.269a.769.769,0,1,1,0-1.538h4.615a.769.769,0,1,1,0,1.538Z" transform="translate(-62.5 -35.938)"/></g><g transform="translate(38.405 49.366)"><path class="c" d="M76.7,37.476H29.582a.769.769,0,0,1,0-1.538H76.7a.769.769,0,1,1,0,1.538Z" transform="translate(-28.813 -35.938)"/></g><g transform="translate(38.692 49.462)"><path class="c" d="M29.769,48.308A.77.77,0,0,1,29,47.538V36.769a.769.769,0,1,1,1.538,0V47.538A.77.77,0,0,1,29.769,48.308Z" transform="translate(-29 -36)"/></g><g transform="translate(38.692 84.846)"><path class="c" d="M29.769,73.615A.77.77,0,0,1,29,72.846V59.769a.769.769,0,0,1,1.538,0V72.846A.77.77,0,0,1,29.769,73.615Z" transform="translate(-29 -59)"/></g><g transform="translate(38.692 77.635)"><path class="c" d="M29.769,59.89A.77.77,0,0,1,29,59.121V55.082a.769.769,0,0,1,1.538,0v4.038A.77.77,0,0,1,29.769,59.89Z" transform="translate(-29 -54.313)"/></g><g transform="translate(99.366 49.366)"><path class="c" d="M72.284,37.476H69.207a.769.769,0,1,1,0-1.538h3.077a.769.769,0,1,1,0,1.538Z" transform="translate(-68.438 -35.938)"/></g></g></svg>