<svg xmlns="http://www.w3.org/2000/svg" width="120" height="120" viewBox="0 0 120 120"><defs><style>.a{fill:#ebfff7;}.b{fill:#7effd8;}.c{fill:#fff;}.d{fill:#00c379;}.e{fill:#472b29;}</style></defs><g transform="translate(-11 -11)"><path class="a" d="M69.923,13a56.923,56.923,0,1,0,56.923,56.923A56.923,56.923,0,0,0,69.923,13Z" transform="translate(1.077 1.077)"/><path class="b" d="M14.077,27a3.077,3.077,0,1,0,3.077,3.077A3.077,3.077,0,0,0,14.077,27Z" transform="translate(0 8.615)"/><path class="b" d="M77.538,12.538a1.538,1.538,0,1,0,1.538,1.538A1.538,1.538,0,0,0,77.538,12.538ZM86.769,11a6.154,6.154,0,1,0,6.154,6.154A6.154,6.154,0,0,0,86.769,11Z" transform="translate(35)"/><path class="b" d="M88.077,22a3.077,3.077,0,1,0,3.077,3.077A3.077,3.077,0,0,0,88.077,22Z" transform="translate(39.846 5.923)"/><path class="c" d="M118.692,82.077a3.077,3.077,0,1,0,3.077,3.077A3.077,3.077,0,0,0,118.692,82.077ZM17.154,59a6.154,6.154,0,1,0,6.154,6.154A6.154,6.154,0,0,0,17.154,59Z" transform="translate(0 25.846)"/><path class="b" d="M26.077,85a3.077,3.077,0,1,0,3.077,3.077A3.077,3.077,0,0,0,26.077,85Z" transform="translate(6.462 39.846)"/><path class="c" d="M19.846,51a3.846,3.846,0,1,0,3.846,3.846A3.846,3.846,0,0,0,19.846,51Z" transform="translate(2.692 21.538)"/><path class="c" d="M21.538,66a1.538,1.538,0,1,0,1.538,1.538A1.538,1.538,0,0,0,21.538,66Z" transform="translate(4.846 29.615)"/><path class="c" d="M80.538,33a1.538,1.538,0,1,0,1.538,1.538A1.538,1.538,0,0,0,80.538,33Z" transform="translate(36.615 11.846)"/><g transform="translate(32.538 32.538)"><path class="d" d="M62.9,26.042A36.858,36.858,0,1,0,99.759,62.9,36.858,36.858,0,0,0,62.9,26.042Z" transform="translate(-24.439 -24.439)"/><path class="e" d="M63.462,27.154A36.308,36.308,0,1,1,27.154,63.462,36.349,36.349,0,0,1,63.462,27.154m0-2.154a38.462,38.462,0,1,0,38.462,38.462A38.462,38.462,0,0,0,63.462,25Z" transform="translate(-25 -25)"/><path class="c" d="M60.5,30.5a30,30,0,1,0,30,30A30,30,0,0,0,60.5,30.5Z" transform="translate(-22.038 -22.038)"/><path class="e" d="M91.173,56.083a.769.769,0,1,0-1.52.235,29.295,29.295,0,1,1-4.8-12.166.77.77,0,0,0,1.266-.877,30.948,30.948,0,1,0,5.058,12.808Z" transform="translate(-22.308 -22.308)"/><path class="e" d="M68.076,44.205a.769.769,0,1,0,1.423-.583,30.53,30.53,0,0,0-1.425-3.042.77.77,0,0,0-1.045-.308.759.759,0,0,0-.177.132.771.771,0,0,0-.132.912A28.107,28.107,0,0,1,68.076,44.205Z" transform="translate(-2.585 -16.827)"/></g><g transform="translate(54.077 60.231)"><path class="d" d="M41.875,51.068a2.5,2.5,0,0,0-1.768,4.268L50.877,66.1a2.483,2.483,0,0,0,1.768.732v.577l.048-.577a2.512,2.512,0,0,0,1.8-.809L71.41,47.566a2.5,2.5,0,0,0-.152-3.532,2.44,2.44,0,0,0-1.8-.655,2.48,2.48,0,0,0-1.732.808L52.567,60.723,43.644,51.8A2.49,2.49,0,0,0,41.875,51.068Z" transform="translate(-38.798 -42.798)"/><path class="e" d="M69.769,44.154h0a1.923,1.923,0,0,1,1.417,3.223L54.263,65.838a1.949,1.949,0,0,1-1.417.623,1.911,1.911,0,0,1-1.36-.563L40.717,55.129a1.923,1.923,0,0,1,2.72-2.72l8.5,8.5.852.852.814-.888L68.352,44.777a1.9,1.9,0,0,1,1.417-.623m0-1.154A3.062,3.062,0,0,0,67.5,44L52.749,60.091l-8.5-8.5A3.076,3.076,0,0,0,39.9,55.945L50.671,66.714a3.071,3.071,0,0,0,2.175.9h.066a3.081,3.081,0,0,0,2.2-1L72.037,48.157A3.078,3.078,0,0,0,69.769,43Z" transform="translate(-39 -43)"/></g></g></svg>