<svg xmlns="http://www.w3.org/2000/svg" xmlns:xlink="http://www.w3.org/1999/xlink" width="1069" height="703" viewBox="0 0 1069 703"><defs><style>.a{fill:#fff;stroke:#707070;}.b{clip-path:url(#a);}.c{fill:#f5f0ff;}.d{fill:#efe6ff;}</style><clipPath id="a"><rect class="a" width="1069" height="703"/></clipPath></defs><g class="b"><path class="c" d="M1031.194,234.426s-2.786,47-47.488,82.5-73.236,53.054-215.095,64.217c-65.883,5.184-155.134,34.814-212.815,156.809,0,0-33.327,66.657-23.658,203.985a182.563,182.563,0,0,1-6.744,65.126c-11.916,39.88-41.558,91.712-115.282,107.071,0,0-89.534,13.606-212.742-53.6,0,0-168.98-70.59-234.877-66.109v-560Z" transform="translate(37.506 -234.426)"/><path class="d" d="M718.617,179.122s22.64,74.444-21.4,114.659-52.691,38.17-154.753,46.2c-47.4,3.73-111.613,25.047-153.113,112.819,0,0-23.978,47.957-17.021,146.76a131.348,131.348,0,0,1-4.852,46.856c-8.573,28.692-35.24,63.437-57.162,71.082L212.976,295.859Z" transform="translate(-140.963 -336.185) rotate(13)"/></g></svg>