<svg xmlns="http://www.w3.org/2000/svg" xmlns:xlink="http://www.w3.org/1999/xlink" width="384.483" height="505.961" viewBox="0 0 384.483 505.961"><defs><style>.a{fill:url(#a);}.b,.m{fill:#575756;}.c{fill:#faeedf;}.d{fill:#fff;}.e,.p{fill:#dadada;}.e,.g,.l,.m,.n{mix-blend-mode:multiply;isolation:isolate;}.f,.g{fill:#00c379;}.g,.l{opacity:0.5;}.h,.n{fill:#ffaa6d;}.i{fill:#1d1d1b;}.j,.l{fill:#673ab7;}.k{fill:#8153d3;}.m{opacity:0.2;}.n{opacity:0.3;}.o{fill:#333332;}.q{fill:#878787;}.r{fill:#4a4a49;}</style><radialGradient id="a" cx="0.5" cy="0.5" r="0.5" gradientUnits="objectBoundingBox"><stop offset="0" stop-color="#673ab7" stop-opacity="0.322"/><stop offset="1" stop-color="#673ab7" stop-opacity="0"/></radialGradient></defs><g transform="translate(-179.354 -197)"><ellipse class="a" cx="168" cy="100.5" rx="168" ry="100.5" transform="translate(248.1 399.164) rotate(20)"/><g transform="translate(178.212 174.694)"><g transform="translate(45.788 92.111)"><g transform="translate(41.892 148.292)"><path class="b" d="M145.108,90.129c20.738,11.973,20.738,31.39,0,43.363s-54.368,11.973-75.111,0S49.26,102.1,70,90.129,124.366,78.151,145.108,90.129Z" transform="translate(-54.444 -14.48)"/><path class="c" d="M145.108,89.432c20.738,11.973,20.738,31.39,0,43.363S90.74,144.773,70,132.8s-20.738-31.39,0-43.363S124.366,77.459,145.108,89.432Z" transform="translate(-54.444 -17.142)"/><path class="c" d="M143.893,137.589l-13.812.3-51.934,1.166-22.04.5q4.21-3.376,7.85-6.625a100.317,100.317,0,0,0,13.29-14.3C85.517,107.559,89.191,96.157,89.592,82c.039-1.926.039-3.891-.024-5.943-.058-2.328-.2-4.757-.421-7.245h24.092c-.179,3.073-.281,5.982-.261,8.793.019,1.4.039,2.788.14,4.133.721,14.616,5.038,26.177,15.177,39.046a155.8,155.8,0,0,0,11.441,12.728C141.061,134.84,142.445,136.2,143.893,137.589Z" transform="translate(-48.06 -61.833)"/><path class="d" d="M83.556,69.414c4.719,2.725,4.719,7.143,0,9.873s-12.375,2.725-17.093,0-4.723-7.148,0-9.873S78.837,66.69,83.556,69.414Z" transform="translate(-21.901 -67.371)"/><path class="e" d="M133.507,123.76a57.887,57.887,0,0,1-9.655,4.375c-15.8,5.624-35.59,6.006-51.934,1.166a62.012,62.012,0,0,1-13.367-5.619c-.281-.165-.561-.324-.823-.5a100.317,100.317,0,0,0,13.29-14.3C79.289,97.806,82.963,86.4,83.364,72.248a91.555,91.555,0,0,1,23.525-.261c.721,14.616,5.038,26.177,15.177,39.046A155.8,155.8,0,0,0,133.507,123.76Z" transform="translate(-41.832 -52.08)"/></g><path class="f" d="M225.825,194.44,191.89,214.017,180.135,220.8c-12.428,7.192-31.69,8.6-46.867,3.47L104.477,214.5c-18.671-6.33-51.363-28.7-58.554-113.184a44.181,44.181,0,0,1,2.134-17.1c4.085-12.772,13.386-24.706,24.977-31.4a90.861,90.861,0,0,1,28.016-14.248c25.524-7.734,46.9,10.575,53.381,25.771l12.956,30.2c13.909,30.988,42.467,50.84,59.121,65.243C235.969,167.944,238.258,187.249,225.825,194.44Z" transform="translate(-45.788 -36.729)"/><ellipse class="g" cx="52.126" cy="30.096" rx="52.126" ry="30.096" transform="translate(58.247 107.36)"/><path class="g" d="M191.89,176.348l-11.755,6.785c-12.428,7.192-31.69,8.6-46.867,3.47l-28.791-9.776c-18.671-6.33-51.363-28.7-58.554-113.184a44.181,44.181,0,0,1,2.134-17.1,201.433,201.433,0,0,0,7.918,46.029c7.008,23.07,19.373,44.873,37.5,60.776C119.838,176.488,157.993,185.151,191.89,176.348Z" transform="translate(-45.788 0.939)"/><path class="g" d="M77,83.447c1.132,6.48,2.27,13.154.91,19.591s-5.827,12.67-12.249,14.088a81.354,81.354,0,0,1,50.433,7.134c-23.2-17.287-38.591-54.992-48.043-82.4C70.349,55.924,75.169,73.022,77,83.447Z" transform="translate(30.508 -17.049)"/><path class="g" d="M48.07,48.31c2.27,17.393,8.944,40.754,14.94,54.112s14.127,25.979,25.282,35.46c-5.319-10.633-.794-25.088,9.636-30.79-6.156,1.1-12.573-.828-17.834-4.215s-9.5-8.126-13.348-13.052C59.758,80.885,52.038,62.49,48.07,48.31Z" transform="translate(-37.027 7.735)"/></g><path class="h" d="M86.11,53.644,84.537,40.955l-17.95,14.78L71.054,72.4l37.87,25.529,12.665-4.462C107.288,77.905,96.926,62.636,86.11,53.644Z" transform="translate(79.859 71.606)"/><path class="c" d="M91.2,60.478c-.5-19.32-9.036-28.689-19.91-28.689l-6.94,18.657L75.188,90.929c9.234-3.044,15.559-7.772,17.95-14.78Z" transform="translate(71.258 36.413)"/><path class="i" d="M91.326,97.264l9.036,10.705c0,6.475,1.282,12.409,4.375,17.577a4.632,4.632,0,0,0,3.586,2.284c5.13.4,9.481-1.041,13.619-2.967,9.965,3.315,20.718,1.161,31.782-3.175,6.374-2.725,10.033-6.635,11.746-11.4a4.186,4.186,0,0,0-.523-3.814l-.276-.4a8.027,8.027,0,0,0-6.63-3.436l-21.546.14-15.675-7.322L106.885,84.884,91.326,96.591Z" transform="translate(174.847 240.276)"/><path class="i" d="M79.394,98.475V106.1a23.783,23.783,0,0,0-3.015,14.959,10.645,10.645,0,0,0,7.695,6.19c5.246,12.839,13.154,19.3,22.867,21.41,7.419,1.108,12.6.266,14.606-3.344,2.173-7.1-3.456-14.417-9.7-21.749a41.969,41.969,0,0,1-7.535-17.079l-2.667-13.033H79.394Z" transform="translate(116.687 273.189)"/><path class="j" d="M159.754,187.39c-.721,18.991-1.844,39.346-1.384,60.224-12.544,4.5-27.784,2.507-28.263-4.118-1.728-32.319-7.589-63.5-2.913-83.507a36.61,36.61,0,0,1,3.233-8.953l-22.461-23.167L62.275,80.73l11.039-8.31L88.007,61.337l1.51-1.142,18.4-3.552c.382.261.765.5,1.128.76.8.542,1.583,1.084,2.347,1.67q3.4,2.439,6.562,5.159l.044.019a113.876,113.876,0,0,1,18.608,20.438c2.41,3.368,4.636,6.843,6.7,10.376v.019a151.623,151.623,0,0,1,7.627,15q3.644,8.312,6.427,16.822a146.788,146.788,0,0,1,2.647,22.8c.281,5.662.344,11.542.281,17.626C160.238,173.819,160.016,180.5,159.754,187.39Z" transform="translate(63.303 131.842)"/><path class="k" d="M252.5,203.538c-3.034,5.962-8.634,12.491-14.112,15.922a16.45,16.45,0,0,1-4.961,2.207,6.492,6.492,0,0,1-6-1.263c-18.148-17.287-35.59-35.915-47-53.419-7.584-11.625-12.525-22.765-13.227-32.662l-39.1-6.8-31.4-5.483c-22.8-3.01-39.026-19.668-39.646-40.827a44.157,44.157,0,0,1,1-10.865l50.085-9.355,21.043-3.935,1.684-.319a5.2,5.2,0,0,0,.663,1.989c1.345,2.367,4.356,3.891,6.562,5.159l.044.019A25.15,25.15,0,0,1,134,70.2a25.407,25.407,0,0,1-10.178,6.625,151.953,151.953,0,0,1,39.627,17.887v.019c4.922,3.034,10.037,6.383,15.98,10.158,1.747,1.1,3.572,2.25,5.5,3.455a20.51,20.51,0,0,1,6.364,6.243C214.038,149.64,233.57,180.9,252.5,203.538Z" transform="translate(43.167 132.191)"/><path class="l" d="M238.371,215.226l-4.961,2.207a6.492,6.492,0,0,1-6-1.263c-18.148-17.287-35.59-35.915-47-53.419-.058,6.485-.281,13.169-.542,20.055a112.29,112.29,0,0,0-32.561-27.4,36.61,36.61,0,0,1,3.233-8.953l-22.461-23.167-31.4-5.483c-22.8-3.01-39.026-19.668-39.646-40.827l12.447-.445L93.43,67.836l27.484-10,13.067,8.131L156.727,80.1c2.41,3.368,4.636,6.843,6.7,10.376V90.5c4.922,3.034,10.037,6.383,15.98,10.158a51.2,51.2,0,0,0-8.353,4.84c-6.34,4.617-10.758,10.4-9.674,15.458l12.084,5.217a100.258,100.258,0,0,0,6.664,18.952C191.074,168.814,211.492,192.141,238.371,215.226Z" transform="translate(43.187 136.427)"/><path class="c" d="M166.916,161.544a75.862,75.862,0,0,0-12.791,3.852c-26.676,10.5-50.729,33.006-68.132,16.14-3.954-22.785-9.553-44.282-18.39-63.234L60.74,101.5l-11.2-27.363C60.019,57.7,73.889,43.743,93.02,33.648c13.048-2.691,25.171-3.533,35.131,0L140.535,63.76,145.9,85.18C151.579,111.275,149.909,138.377,166.916,161.544Z" transform="translate(14.39 34.549)"/><path class="m" d="M150.216,114.658l-4.98,3.01c-26.676,10.5-50.729,33.006-68.132,16.14-3.954-22.785-9.553-44.282-18.39-63.234l-6.863-16.8,6.625-10.037c7.647,22.2,15.937,43.242,29.347,55.326,7.288,7.027,16.822,11.8,28.989,13.933Z" transform="translate(23.279 82.277)"/><path class="h" d="M124.491,91.812C120.8,92.083,69.523,70.643,70.36,69.25a69.932,69.932,0,0,0,3.935-13.512L47.817,50.288c-.489,8.319-.373,17.181-.044,26.235,5.517,20.873,41.19,23.351,72.2,27.228C119.975,103.751,125.493,91.734,124.491,91.812Z" transform="translate(6.527 107.441)"/><path class="h" d="M58.256,29.859l-3.117,20.1S66.183,66.558,76.995,65.43C91.983,63.867,87.08,49.963,87.08,49.963L85.2,31.887Z" transform="translate(35.903 29.002)"/><path class="n" d="M56.928,36.366l28.181-3.61s7.472,27.46-4.9,32.149C62.823,71.5,56.928,36.366,56.928,36.366Z" transform="translate(42.773 40.126)"/><g transform="translate(87.928 22.306)"><path class="h" d="M62.551,65.931a20.344,20.344,0,0,0,1.326,6.848,39.153,39.153,0,0,0,2.5,5.493A49.245,49.245,0,0,0,84.45,88.7a6.847,6.847,0,0,0,6.427-1.737c4.152-4.472,6.906-12.06,9.036-21.028l2-11.47c-.547-17.1-6.321-29.826-24.764-31.975-11.7,2.231-19.445,8.8-21.9,21.2-1.016,5.6-.29,11.484,1.578,17.553Z" transform="translate(-53.357 -21.613)"/><path class="i" d="M57.968,69.813l4.549,3.068-.131-6.964,4.433,1.1,2.6-6.258c11.208,7.376,31.273,4.225,34.279-4.375,2.226-9.142.1-20.772-9.67-28.181-5.232-3.968-10.4-6.8-18.352-5.628-11.818,1.742-19,9.786-21.115,21.894C54.106,50.218,55.96,63.507,57.968,69.813Z" transform="translate(-54.495 -22.306)"/><path class="h" d="M62.132,38.412c0-2.236-.039-4.065-1.2-6-.842-1.4-2.967-3.475-4.559-2.115-2.265,1.931-.547,9.955,1.723,11.267C61.512,43.547,62.132,40.817,62.132,38.412Z" transform="translate(-51.375 6.691)"/></g><path class="c" d="M76.623,75.416c-.9-21.522-6.069-34.671-17.3-35.949C51.539,50.951,46.8,63.123,49.269,76.921a121.032,121.032,0,0,0-1.713,14.916c5.928,4.012,15.429,5.319,26.477,5.449A164.711,164.711,0,0,0,76.623,75.416Z" transform="translate(6.788 65.893)"/><g transform="translate(125.717 180.254)"><rect class="o" width="16.004" height="5.222" transform="translate(49.899 68.341) rotate(-29.998)"/><path class="o" d="M62.3,63.127l53.6,30.8c0,2.415-1.67,3.378-3.722,2.192l-46.16-26.5A8.217,8.217,0,0,1,62.3,63.171Z" transform="translate(-62.303 -23.516)"/><path class="b" d="M184.373,85.5,130.915,54.942,62.3,94.554l53.6,30.8Z" transform="translate(-62.304 -54.942)"/><g transform="translate(23.988 12.037)"><path class="p" d="M74.975,66.9l3.048,1.76-3.771,2.177L71.2,69.075Z" transform="translate(-52.117 -21.073)"/><path class="p" d="M79.89,67.582l-3.771,2.178L73.07,68l3.771-2.177Z" transform="translate(-44.955 -25.208)"/><path class="p" d="M77.773,65.283l3.049,1.761L77.051,69.22,74,67.46Z" transform="translate(-41.373 -27.276)"/><path class="p" d="M78.706,64.745l3.048,1.76-3.771,2.177-3.048-1.76Z" transform="translate(-37.793 -29.343)"/><path class="p" d="M79.638,64.206l3.049,1.76-3.771,2.177-3.048-1.76Z" transform="translate(-34.211 -31.41)"/><path class="p" d="M84.552,64.89l-3.771,2.177-3.049-1.761L81.5,63.129Z" transform="translate(-27.05 -35.546)"/><path class="p" d="M82.437,62.591l3.048,1.761-3.771,2.177-3.049-1.761Z" transform="translate(-23.469 -37.613)"/><path class="p" d="M83.369,62.052l3.049,1.761L82.647,65.99,79.6,64.23Z" transform="translate(-19.888 -39.681)"/><path class="p" d="M80.236,62.444l-3.048-1.76,3.771-2.177,3.049,1.76Z" transform="translate(-29.143 -53.294)"/><path class="p" d="M81.168,61.905l-3.048-1.76,3.771-2.177,3.048,1.76Z" transform="translate(-25.562 -55.361)"/><path class="p" d="M79.053,59.607l3.771-2.177,3.049,1.761L82.1,61.367Z" transform="translate(-21.981 -57.43)"/><path class="p" d="M70.309,68.411,67.26,66.65l3.771-2.177,3.049,1.76Z" transform="translate(-67.26 -30.386)"/><path class="p" d="M71.241,67.872l-3.048-1.761,3.771-2.177,3.049,1.761Z" transform="translate(-63.679 -32.454)"/><path class="p" d="M94,63l-6.84,3.949-1.444.834-.743.429L83.087,69.3,80.458,70.82,76.688,73,72.174,75.6l-3.049-1.761,12.363-7.137.435-.252,9.027-5.211Z" transform="translate(-60.099 -42.791)"/><path class="p" d="M76.838,64.641,73.789,62.88,77.559,60.7l3.049,1.76Z" transform="translate(-42.194 -44.859)"/><path class="p" d="M77.77,64.1l-3.048-1.76,3.771-2.177,3.048,1.76Z" transform="translate(-38.613 -46.926)"/><path class="p" d="M75.654,61.8l3.77-2.177,3.05,1.76L78.7,63.563Z" transform="translate(-35.032 -48.994)"/><path class="p" d="M77.971,61.136l3.771-2.177,3.049,1.76L81.02,62.9Z" transform="translate(-26.135 -51.557)"/><path class="p" d="M78.9,60.6l3.771-2.177,3.048,1.76-3.771,2.178Z" transform="translate(-22.554 -53.625)"/><path class="p" d="M79.836,60.058l3.771-2.176,3.049,1.76-3.771,2.177Z" transform="translate(-18.973 -55.692)"/><path class="p" d="M68.044,67.1l3.771-2.177,3.048,1.76-3.771,2.177Z" transform="translate(-64.252 -28.649)"/><path class="p" d="M75.8,66.147l-3.772,2.177-3.048-1.761,3.771-2.176Z" transform="translate(-60.671 -30.717)"/><path class="p" d="M76.728,65.608l-3.771,2.177-3.049-1.76,3.771-2.177Z" transform="translate(-57.091 -32.784)"/><path class="p" d="M77.661,65.07,73.89,67.247l-3.049-1.761,3.771-2.177Z" transform="translate(-53.509 -34.852)"/><path class="p" d="M78.594,64.532l-3.771,2.177-3.048-1.76,3.771-2.177Z" transform="translate(-49.929 -36.92)"/><path class="p" d="M79.526,63.992l-3.77,2.178-3.049-1.76,3.771-2.177Z" transform="translate(-46.348 -38.987)"/><path class="p" d="M80.459,63.454l-3.771,2.177-3.048-1.76,3.771-2.177Z" transform="translate(-42.767 -41.054)"/><path class="p" d="M81.392,62.916l-3.771,2.177-3.049-1.76,3.771-2.177Z" transform="translate(-39.186 -43.122)"/><path class="p" d="M82.325,62.377l-3.771,2.178L75.5,62.794l3.771-2.177Z" transform="translate(-35.605 -45.189)"/><path class="p" d="M78.755,61.588l3.771-2.177,3.049,1.76L81.8,63.348Z" transform="translate(-23.127 -49.82)"/><path class="p" d="M86.507,60.633,82.736,62.81l-3.049-1.76,3.771-2.177Z" transform="translate(-19.546 -51.888)"/><path class="p" d="M80.62,60.511l3.772-2.176,3.048,1.76-3.771,2.177Z" transform="translate(-15.966 -53.955)"/><path class="p" d="M68.827,67.555,72.6,65.377l3.049,1.761-3.771,2.177Z" transform="translate(-61.244 -26.913)"/><path class="p" d="M76.579,66.6l-3.771,2.177L69.76,67.015l3.771-2.176Z" transform="translate(-57.663 -28.98)"/><path class="p" d="M70.692,66.478,74.463,64.3l3.049,1.76L73.74,68.238Z" transform="translate(-54.082 -31.048)"/><path class="p" d="M71.625,65.939,75.4,63.762l3.049,1.76L74.674,67.7Z" transform="translate(-50.502 -33.115)"/><path class="p" d="M72.558,65.4l3.771-2.177,3.048,1.76-3.771,2.177Z" transform="translate(-46.921 -35.182)"/><path class="p" d="M73.49,64.863l3.771-2.178,3.049,1.76L76.54,66.623Z" transform="translate(-43.34 -37.25)"/><path class="p" d="M81.242,63.907l-3.771,2.177-3.048-1.76,3.771-2.177Z" transform="translate(-39.758 -39.318)"/><path class="p" d="M75.355,63.785l3.771-2.177,3.049,1.76L78.4,65.546Z" transform="translate(-36.178 -41.385)"/><path class="p" d="M83.851,66.205l-4.514,2.607-3.049-1.761L80.8,64.445l-3.791-2.189,3.771-2.177,3.792,2.189,1.236.714,1.813,1.047L85.1,65.483Z" transform="translate(-32.597 -47.257)"/><path class="p" d="M82.586,63.8l-3.048-1.76,3.771-2.177,3.048,1.76Z" transform="translate(-20.119 -48.084)"/><path class="p" d="M84.242,59.325l3.048,1.76-3.771,2.177L80.471,61.5Z" transform="translate(-16.538 -50.152)"/><path class="p" d="M81.4,60.963l3.772-2.177,3.048,1.76-3.771,2.177Z" transform="translate(-12.958 -52.219)"/><path class="p" d="M69.61,68.007l3.771-2.177,3.049,1.76-3.771,2.177Z" transform="translate(-58.236 -25.176)"/><path class="p" d="M73.592,69.228l-3.049-1.76,3.77-2.177,3.049,1.76Z" transform="translate(-54.655 -27.243)"/><path class="p" d="M71.476,66.93l3.771-2.177,3.048,1.76L74.524,68.69Z" transform="translate(-51.074 -29.311)"/><path class="p" d="M76.179,64.214l3.049,1.76-3.771,2.177-3.049-1.761Z" transform="translate(-47.494 -31.379)"/><path class="p" d="M73.341,65.853l3.771-2.177,3.048,1.76L76.39,67.612Z" transform="translate(-43.912 -33.446)"/><path class="p" d="M74.274,65.315l3.772-2.177L81.094,64.9l-3.771,2.177Z" transform="translate(-40.332 -35.514)"/><path class="p" d="M78.255,66.536l-3.049-1.761L78.977,62.6l3.049,1.76Z" transform="translate(-36.751 -37.581)"/><path class="p" d="M76.139,64.238,79.91,62.06l3.049,1.76L79.188,66Z" transform="translate(-33.17 -39.649)"/><path class="p" d="M81.585,63.16l1.375-.794,2.4-1.383,3.048,1.76-2.4,1.383-1.376.794-4.512,2.606-3.049-1.76Z" transform="translate(-29.589 -43.784)"/><path class="p" d="M87.924,62.529l-3.771,2.177L81.1,62.945l3.77-2.177Z" transform="translate(-14.103 -44.611)"/><path class="p" d="M85.808,60.23l3.049,1.761-3.772,2.177-3.048-1.761Z" transform="translate(-10.522 -46.678)"/><path class="p" d="M86.741,59.691l3.048,1.76-3.771,2.177-3.049-1.76Z" transform="translate(-6.941 -48.745)"/></g><path class="q" d="M69.29,67.271l9.05,5.222a1.651,1.651,0,0,0,1.491,0l13.648-7.879a.452.452,0,0,0,0-.857l-9.05-5.227a1.651,1.651,0,0,0-1.491,0L69.29,66.415A.453.453,0,0,0,69.29,67.271Z" transform="translate(-36.65 -41.846)"/></g><path class="h" d="M66.722,58.566l8.406,1.462L84.919,60,95.73,63.139l7.768,3.247c2.125.784,2.125,1.907,1.132,2.473l7.55,3.359,6.195,3.586c2.028,1.515.46,3.712-2.134,2.705l-12.612-5.033-2.362.339,6.311,4.152,8.677,6.17c2.594,2.018.518,4.385-2.129,3.155l-12.283-6.611,8.46,8.3c2.313,2.754-.16,4.331-2.468,2.821L96.447,82.716l-3.039-.668,6.209,8.314c2.2,2.754-.557,3.6-2.749,1.239l-8.3-7.966A49.472,49.472,0,0,1,77.2,78.713a28.245,28.245,0,0,1-7.109-7.526l-9.573-1.35C60.159,63.672,59.68,58.687,66.722,58.566Z" transform="translate(55.889 139.226)"/><path class="h" d="M91.537,55.933a38.423,38.423,0,0,1,9.631,9.67l11.809,12.336c1.616,2.173-.436,3.489-2.41,1.936l-3.872-3.605,5.44,7.627c1.65,2.42-.566,4.109-2.788,2.429L98.975,75.707l6.848,13.048c1.4,2.875-1.471,4.109-3.286,1.65L93.555,77.691,92,77.614l3.068,13.628c.828,2.628-2.371,3.62-3.446.5l-6.03-14.94-3.62-2.947-3.054,6.083L78.3,85.778a3.649,3.649,0,0,1-1.8,3.291,1.51,1.51,0,0,1-2.052-.736l.4-4.932-.426-7.966,4.457-15.041-2.778-4.84,8.818-4.825Z" transform="translate(109.912 109.139)"/><g transform="translate(179.37 157.754)"><path class="r" d="M87.567,104.24l14.761-53.947c2.018,1.805,3.185,4.844,2.642,6.819l-12.791,46.8c-.547,1.975-2.594,2.134-4.578.363Z" transform="translate(-18.956 -50.293)"/><path class="r" d="M85.341,89.879,74.135,144.9,142.7,105.314,153.9,50.293Z" transform="translate(-70.531 -50.292)"/><path class="o" d="M73.39,112.425,88.151,58.478c2.018,1.805,3.184,4.844,2.642,6.819L78,112.1c-.547,1.975-2.594,2.134-4.578.363Z" transform="translate(-73.39 -18.866)"/><path class="p" d="M82.47,65.95c-.382,2.328,1.065,3.272,3.233,2.11a10,10,0,0,0,4.617-6.33c.387-2.328-1.06-3.272-3.228-2.11A10.029,10.029,0,0,0,82.47,65.95Z" transform="translate(-38.763 -16.388)"/></g></g></g></svg>