<svg xmlns="http://www.w3.org/2000/svg" xmlns:xlink="http://www.w3.org/1999/xlink" width="47.125" height="49.414" viewBox="0 0 47.125 49.414"><defs><style>.a{fill:url(#a);}.b{fill:url(#b);}.c{stroke:rgba(0,0,0,0);stroke-miterlimit:10;fill:url(#c);}</style><linearGradient id="a" x1="0.5" x2="0.5" y2="1" gradientUnits="objectBoundingBox"><stop offset="0" stop-color="#7effd8"/><stop offset="0.569" stop-color="#28df99"/><stop offset="1" stop-color="#28df99"/></linearGradient><linearGradient id="b" x1="0.5" x2="0.5" y2="1" gradientUnits="objectBoundingBox"><stop offset="0" stop-color="#673ab7"/><stop offset="1" stop-color="#341d5c"/></linearGradient><linearGradient id="c" x1="0.5" x2="0.5" y2="1" gradientUnits="objectBoundingBox"><stop offset="0" stop-color="#28df99"/><stop offset="0.432" stop-color="#28df99"/><stop offset="1" stop-color="#7effd8"/></linearGradient></defs><g transform="translate(-83.889 -53.245)"><path class="a" d="M-1145.374,69.684a12.335,12.335,0,0,1,0-17.443l15.29-15.289a12.531,12.531,0,0,1,0,17.721l-6.289,6.289,6.268,6.269a12.531,12.531,0,0,1,0,17.721Z" transform="translate(1257.428 17)"/><path class="b" d="M-1145.374,59.45a12.335,12.335,0,0,1,0-17.443l5.056-5.055a6.954,6.954,0,0,0,0,9.833l3.945,3.944,6.268,6.269a12.529,12.529,0,0,1,0,17.721Z" transform="translate(1257.428 27.234)"/><path class="c" d="M-1145.316,67.231l6.289-6.29-6.268-6.268a12.529,12.529,0,0,1,0-17.721l15.268,15.268a12.334,12.334,0,0,1,0,17.443l-15.289,15.289A12.529,12.529,0,0,1-1145.316,67.231Z" transform="translate(1233.375 17)"/><path class="b" d="M-1135.1,64.885l-3.944-3.945-6.268-6.268a12.529,12.529,0,0,1,0-17.721l15.268,15.268a12.334,12.334,0,0,1,0,17.443l-5.056,5.055A6.951,6.951,0,0,0-1135.1,64.885Z" transform="translate(1233.397 17)"/></g></svg>