<svg xmlns="http://www.w3.org/2000/svg" xmlns:xlink="http://www.w3.org/1999/xlink" width="78.208" height="81.414" viewBox="0 0 78.208 81.414"><defs><style>.a{fill:url(#a);}.b{fill:url(#b);}.c{stroke:rgba(0,0,0,0);stroke-miterlimit:10;fill:url(#c);}</style><linearGradient id="a" x1="0.5" x2="0.5" y2="1" gradientUnits="objectBoundingBox"><stop offset="0" stop-color="#fff"/><stop offset="0.335" stop-color="#bdbdbd"/><stop offset="0.539" stop-color="#818181"/><stop offset="1" stop-color="#757575"/></linearGradient><linearGradient id="b" x1="0.5" x2="0.5" y2="1" gradientUnits="objectBoundingBox"><stop offset="0" stop-color="#fff"/><stop offset="1" stop-color="#bdbdbd"/></linearGradient><linearGradient id="c" x1="0.5" x2="0.5" y2="1" gradientUnits="objectBoundingBox"><stop offset="0" stop-color="#757575"/><stop offset="0.448" stop-color="#757575"/><stop offset="0.716" stop-color="#bdbdbd"/><stop offset="1" stop-color="#fff"/></linearGradient></defs><g transform="translate(-83.889 -53.245)"><path class="a" d="M6.02,54.554a20.559,20.559,0,0,1,0-29.072L31.5,0a20.885,20.885,0,0,1,0,29.535L21.022,40.017,31.468,50.465a20.885,20.885,0,0,1,0,29.535Z" transform="translate(124.477 53.952)"/><path class="b" d="M6.02,37.5a20.559,20.559,0,0,1,0-29.072L14.447,0a11.59,11.59,0,0,0,0,16.388l6.574,6.573L31.468,33.408a20.883,20.883,0,0,1,0,29.535Z" transform="translate(124.477 71.009)"/><path class="c" d="M6.118,50.465,16.6,39.981,6.154,29.535A20.882,20.882,0,0,1,6.154,0L31.6,25.446a20.557,20.557,0,0,1,0,29.072L6.118,80A20.882,20.882,0,0,1,6.118,50.465Z" transform="translate(84.389 53.952)"/><path class="b" d="M23.137,46.556l-6.573-6.575L6.118,29.535A20.882,20.882,0,0,1,6.118,0L31.564,25.446a20.557,20.557,0,0,1,0,29.072l-8.427,8.426A11.585,11.585,0,0,0,23.137,46.556Z" transform="translate(84.425 53.952)"/></g></svg>