<svg xmlns="http://www.w3.org/2000/svg" xmlns:xlink="http://www.w3.org/1999/xlink" width="1120" height="160" viewBox="0 0 1120 160"><defs><style>.a{fill:#fff;}.b{clip-path:url(#c);}.c,.e{opacity:0.08;}.d{fill:none;stroke:#673ab7;stroke-linecap:round;stroke-linejoin:round;stroke-width:4px;}.e{fill:#673ab7;}.f{filter:url(#a);}</style><filter id="a" x="-18" y="-16" width="1156" height="196" filterUnits="userSpaceOnUse"><feOffset dy="2" input="SourceAlpha"/><feGaussianBlur stdDeviation="6" result="b"/><feFlood flood-opacity="0.078"/><feComposite operator="in" in2="b"/><feComposite in="SourceGraphic"/></filter><clipPath id="c"><g class="f" transform="matrix(1, 0, 0, 1, 0, 0)"><rect class="a" width="1120" height="160" rx="8" transform="translate(180 1017)"/></g></clipPath></defs><g class="b" transform="translate(-180 -1017)"><g class="c" transform="matrix(0.966, 0.259, -0.259, 0.966, 673.584, 984.326)"><path class="d" d="M3,69.667V43a40,40,0,1,1,80,0V69.667" transform="translate(0 0)"/><path class="d" d="M83,36.222a8.889,8.889,0,0,1-8.889,8.889H69.667a8.889,8.889,0,0,1-8.889-8.889V22.889A8.889,8.889,0,0,1,69.667,14H83Zm-80,0a8.889,8.889,0,0,0,8.889,8.889h4.444a8.889,8.889,0,0,0,8.889-8.889V22.889A8.889,8.889,0,0,0,16.333,14H3Z" transform="translate(0 37.889)"/></g><path class="e" d="M0,256l37.333-26.7C74.667,203,149.333,149,224,154.7c74.667,5.3,149.333,69.3,224,64C522.667,213,597.333,139,672,128s149.333,43,224,69.3C970.667,224,1045.333,224,1082.667,224H1120v96H0Z" transform="translate(106 953.458)"/><path class="e" d="M1120,256l-37.333-21.3c-37.333-21.7-112-63.7-186.667-64-74.667.3-149.333,42.3-224,42.6-74.667-.3-149.333-42.3-224-80C373.333,96,298.667,64,224,64S74.667,96,37.333,112L0,128V320H1120Z" transform="translate(180 958)"/></g></svg>