<svg xmlns="http://www.w3.org/2000/svg" width="120" height="120" viewBox="0 0 120 120"><defs><style>.a{fill:#00c379;}.b{fill:#673ab7;}.c{fill:#f2ebff;}.d{fill:#fff;}.e{fill:#fdfcef;}.f{fill:#472b29;}.g{fill:#a2a2cc;}.h{fill:#7782ac;}.i{fill:#4a5397;}.j{fill:#f1bc19;}.k{fill:#ef9922;}.l{fill:#fbcd59;}</style></defs><g transform="translate(-10.875 -11.958)"><path class="a" d="M13.952,27.958a3.077,3.077,0,1,0,3.077,3.077A3.076,3.076,0,0,0,13.952,27.958Z" transform="translate(0 8.615)"/><path class="b" d="M77.413,12.958A1.538,1.538,0,1,0,78.952,14.5,1.541,1.541,0,0,0,77.413,12.958Z" transform="translate(35 0.538)"/><path class="c" d="M69.8,13.958a56.923,56.923,0,1,0,56.923,56.923A56.924,56.924,0,0,0,69.8,13.958Z" transform="translate(1.077 1.077)"/><path class="b" d="M85.029,11.958a6.154,6.154,0,1,0,6.154,6.154A6.15,6.15,0,0,0,85.029,11.958Z" transform="translate(36.615)"/><path class="a" d="M87.952,22.958a3.077,3.077,0,1,0,3.077,3.077A3.076,3.076,0,0,0,87.952,22.958Z" transform="translate(39.846 5.923)"/><path class="b" d="M118.567,83.035a3.077,3.077,0,1,0,3.077,3.077A3.076,3.076,0,0,0,118.567,83.035ZM17.029,59.958a6.154,6.154,0,1,0,6.154,6.154A6.15,6.15,0,0,0,17.029,59.958Z" transform="translate(0 25.846)"/><path class="a" d="M25.952,85.958a3.077,3.077,0,1,0,3.077,3.077A3.076,3.076,0,0,0,25.952,85.958Z" transform="translate(6.462 39.846)"/><path class="d" d="M21.721,37.958A3.846,3.846,0,1,0,25.567,41.8,3.85,3.85,0,0,0,21.721,37.958Z" transform="translate(3.769 14)"/><path class="b" d="M21.413,65.958A1.538,1.538,0,1,0,22.952,67.5,1.541,1.541,0,0,0,21.413,65.958Z" transform="translate(4.846 29.077)"/><path class="d" d="M80.413,32.958A1.538,1.538,0,1,0,81.952,34.5,1.541,1.541,0,0,0,80.413,32.958Z" transform="translate(36.615 11.308)"/><path class="e" d="M49.753,65.278c-2.614-1.232-5.637-.36-6.752,1.949a4.1,4.1,0,0,0-.309.883" transform="translate(17.132 28.41)"/><path class="f" d="M42.826,68.627a.421.421,0,0,1-.086-.009.385.385,0,0,1-.289-.462,4.527,4.527,0,0,1,.337-.963c1.2-2.5,4.462-3.449,7.262-2.131a.385.385,0,0,1-.328.7c-2.423-1.143-5.22-.348-6.242,1.766a3.781,3.781,0,0,0-.28.8A.38.38,0,0,1,42.826,68.627Z" transform="translate(16.997 28.275)"/><path class="g" d="M39.151,72.363H32.7a1.615,1.615,0,0,1-1.611-1.611h0A1.615,1.615,0,0,1,32.7,69.141h6.446a1.615,1.615,0,0,1,1.611,1.611h0A1.615,1.615,0,0,1,39.151,72.363Z" transform="translate(10.887 30.791)"/><path class="f" d="M39.592,73.742H33.178a2.511,2.511,0,0,1,0-4.977h6.414a2.511,2.511,0,0,1,0,4.977Zm-6.415-3.665a1.187,1.187,0,0,0,0,2.352h6.414a1.187,1.187,0,0,0,0-2.352Z" transform="translate(10.837 30.588)"/><path class="h" d="M84,91.292H33.851a7.783,7.783,0,0,1-7.692-7.826V36.826A7.783,7.783,0,0,1,33.851,29H84a7.783,7.783,0,0,1,7.692,7.826V83.468A7.782,7.782,0,0,1,84,91.292Z" transform="translate(8.23 9.176)"/><path class="f" d="M85.26,92.615H33.969A8.966,8.966,0,0,1,25,83.675V36.94A8.965,8.965,0,0,1,33.969,28H85.262a8.966,8.966,0,0,1,8.969,8.94V83.677A8.968,8.968,0,0,1,85.26,92.615ZM33.969,30.2A6.762,6.762,0,0,0,27.2,36.938V83.675a6.762,6.762,0,0,0,6.766,6.743H85.262a6.762,6.762,0,0,0,6.766-6.743V36.94A6.762,6.762,0,0,0,85.262,30.2H33.969Z" transform="translate(7.606 8.638)"/><path class="g" d="M72.131,82.756h6.377A3.187,3.187,0,0,0,81.7,79.569v-42.5a3.188,3.188,0,0,0-3.188-3.188H31.745V82.755H72.131v0Z" transform="translate(11.238 11.803)"/><path class="f" d="M79.214,83.558H72.722a.575.575,0,1,1,0-1.151h6.492a2.653,2.653,0,0,0,2.666-2.637V36.941A2.654,2.654,0,0,0,79.214,34.3H32.182V48.718a.582.582,0,0,1-1.163,0V33.73a.579.579,0,0,1,.582-.575H79.213a3.812,3.812,0,0,1,3.828,3.788V79.772A3.81,3.81,0,0,1,79.214,83.558Zm-9.738,0H67.313a.575.575,0,1,1,0-1.151h2.163a.575.575,0,1,1,0,1.151Zm-4.328,0H31.6a.578.578,0,0,1-.582-.575V53a.582.582,0,0,1,1.163,0v29.4H65.147a.575.575,0,1,1,0,1.151Z" transform="translate(10.847 11.414)"/><path class="i" d="M29.417,37.719h3.045v8.594H29.417Z" transform="translate(9.984 13.871)"/><path class="f" d="M32.532,46.832h-3c-.3,0-.537-.172-.537-.385V37.854c0-.212.24-.385.537-.385h3c.3,0,.537.172.537.385v8.594C33.069,46.66,32.831,46.832,32.532,46.832Zm-2.458-.769H32V38.238H30.074Z" transform="translate(9.76 13.737)"/><g transform="translate(39.401 78.446)"><path class="i" d="M29.417,55.175h3.045v8.594H29.417Z" transform="translate(-29.417 -55.175)"/></g><g transform="translate(38.76 78.061)"><path class="f" d="M32.532,64.288h-3c-.3,0-.537-.172-.537-.385V55.31c0-.212.24-.385.537-.385h3c.3,0,.537.172.537.385V63.9C33.069,64.116,32.831,64.288,32.532,64.288Zm-2.458-.769H32V55.694H30.074Z" transform="translate(-29 -54.925)"/></g><g transform="translate(84.338 87.04)"><path class="h" d="M60.777,60.761a2.149,2.149,0,1,0,0,4.3h0a2.149,2.149,0,1,0,0-4.3Z" transform="translate(-58.626 -60.761)"/></g><g transform="translate(83.764 86.464)"><path class="f" d="M60.978,65.836A2.725,2.725,0,1,1,63.7,63.112,2.728,2.728,0,0,1,60.978,65.836Zm0-4.3a1.571,1.571,0,1,0,1.571,1.571A1.573,1.573,0,0,0,60.978,61.539Z" transform="translate(-58.253 -60.387)"/></g><g transform="translate(46.74 48.367)"><path class="h" d="M36.338,35.624a2.149,2.149,0,0,0,0,4.3h0a2.149,2.149,0,0,0,0-4.3Z" transform="translate(-34.187 -35.624)"/></g><g transform="translate(46.166 47.793)"><path class="f" d="M36.539,40.7a2.725,2.725,0,1,1,2.725-2.725A2.728,2.728,0,0,1,36.539,40.7Zm0-4.3a1.571,1.571,0,1,0,1.571,1.571A1.573,1.573,0,0,0,36.539,36.4Z" transform="translate(-33.814 -35.251)"/></g><g transform="translate(52.606 53.561)"><path class="j" d="M53.88,39.51A15.369,15.369,0,1,0,69.249,54.879,15.369,15.369,0,0,0,53.88,39.51Z" transform="translate(-37.725 -38.725)"/><path class="f" d="M54.155,71.308A16.154,16.154,0,1,1,70.308,55.155,16.173,16.173,0,0,1,54.155,71.308Zm0-30.737A14.582,14.582,0,1,0,68.737,55.154,14.6,14.6,0,0,0,54.155,40.571Z" transform="translate(-38 -39)"/><path class="f" d="M54.058,46.238a.51.51,0,0,1-.511-.511V39.689a.511.511,0,1,1,1.022,0v6.038A.51.51,0,0,1,54.058,46.238Zm0,24.7a.51.51,0,0,1-.511-.511V64.938a.511.511,0,1,1,1.022,0v5.488A.51.51,0,0,1,54.058,70.936ZM69.426,55.569H63.389a.511.511,0,0,1,0-1.022h6.037a.511.511,0,0,1,0,1.022Zm-25.248,0H38.691a.511.511,0,0,1,0-1.022h5.488a.511.511,0,0,1,0,1.022Zm17.78-7.825a.5.5,0,0,1-.36-.149.511.511,0,0,1,0-.723L64.546,43.9a.511.511,0,0,1,.723.722L62.32,47.593A.505.505,0,0,1,61.958,47.744Zm-18.58,18.7a.5.5,0,0,1-.36-.149.511.511,0,0,1,0-.723l4.165-4.189a.511.511,0,1,1,.723.722L43.74,66.292A.508.508,0,0,1,43.378,66.443Zm21.529,0a.508.508,0,0,1-.362-.151L60.36,62.078a.511.511,0,0,1,.723-.722l4.186,4.214a.512.512,0,0,1,0,.723A.5.5,0,0,1,64.908,66.443ZM47.66,49.081a.508.508,0,0,1-.362-.151l-4.28-4.308a.511.511,0,1,1,.723-.722l4.28,4.308a.512.512,0,0,1,0,.723A.5.5,0,0,1,47.66,49.081Z" transform="translate(-37.903 -38.904)"/><path class="k" d="M60.9,50.835a9.326,9.326,0,1,1-.562-1.768" transform="translate(-35.612 -36.612)"/><path class="f" d="M51.932,62.732a9.8,9.8,0,1,1,9-13.685.472.472,0,0,1-.866.377A8.874,8.874,0,1,0,60.6,51.1a.471.471,0,1,1,.922-.194,9.8,9.8,0,0,1-9.589,11.823Z" transform="translate(-35.776 -36.776)"/></g><g transform="translate(84.913 87.407)"><path class="l" d="M69.512,61.481a10.03,10.03,0,0,0-.012,20.06h.012a10.03,10.03,0,0,0,.012-20.06Z" transform="translate(-58.743 -60.741)"/><path class="f" d="M69.769,82.538A10.769,10.769,0,1,1,80.538,71.769,10.781,10.781,0,0,1,69.769,82.538Zm0-20.062a9.292,9.292,0,1,0,9.292,9.292A9.3,9.3,0,0,0,69.769,62.477Z" transform="translate(-59 -61)"/><path class="j" d="M68.3,63.737A6.558,6.558,0,1,0,74.854,70.3,6.559,6.559,0,0,0,68.3,63.737Z" transform="translate(-57.526 -59.526)"/><path class="f" d="M68.425,77.353a6.928,6.928,0,1,1,6.926-6.928A6.936,6.936,0,0,1,68.425,77.353Zm0-13.118a6.188,6.188,0,1,0,6.188,6.188A6.2,6.2,0,0,0,68.425,64.235Z" transform="translate(-57.655 -59.655)"/><g transform="translate(9.109 7.103)"><path class="f" d="M65.575,71.035a.169.169,0,0,1,.055.026l-.014-.008a2.842,2.842,0,0,0,.352.214,1.3,1.3,0,0,0,.332.112V69.268l-.123-.068c-.149-.082-.292-.166-.428-.258a2.434,2.434,0,0,1-.366-.3,1.8,1.8,0,0,1-.275-.346,1.182,1.182,0,0,1-.154-.4,1.019,1.019,0,0,1-.031-.2c0-.063,0-.131,0-.2a1.383,1.383,0,0,1,.1-.557,1.186,1.186,0,0,1,.289-.4,1.437,1.437,0,0,1,.434-.266,2.158,2.158,0,0,1,.549-.131v-.191a.414.414,0,0,1,.062-.231.244.244,0,0,1,.225-.094h.028a.346.346,0,0,1,.388.346l0,.182a2.254,2.254,0,0,1,.389.1c.134.048.283.108.452.18l-.018-.014a.489.489,0,0,1,.18.1.307.307,0,0,1,.078.2v.042a.506.506,0,0,1-.023.123.59.59,0,0,1-.071.143.538.538,0,0,1-.109.118.211.211,0,0,1-.135.052.617.617,0,0,1-.112-.011.327.327,0,0,1-.118-.057v.006l-.075-.042A2.045,2.045,0,0,0,67,66.926V68.78l.026.014a2.832,2.832,0,0,1,.849.617,1.715,1.715,0,0,1,.394.706,2.447,2.447,0,0,1,.057.285,1.863,1.863,0,0,1,.018.265,1.506,1.506,0,0,1-.1.565,1.37,1.37,0,0,1-.7.745,1.833,1.833,0,0,1-.54.16v.489a.453.453,0,0,1-.055.231.236.236,0,0,1-.225.094h-.042a.392.392,0,0,1-.272-.092.341.341,0,0,1-.1-.268v-.455a2.011,2.011,0,0,1-.631-.163,4.1,4.1,0,0,1-.543-.306.351.351,0,0,1-.1-.115,1.4,1.4,0,0,1-.06-.149v-.04a.327.327,0,0,1,.037-.138.751.751,0,0,1,.092-.149.813.813,0,0,1,.115-.123.189.189,0,0,1,.115-.051.211.211,0,0,1,.132.045c.038.029.075.058.112.092h0a.037.037,0,0,0,.018.008Zm.351-2.886a1.785,1.785,0,0,0,.377.265V66.926a.915.915,0,0,0-.431.211.54.54,0,0,0-.172.422c0,.026,0,.057,0,.089a.651.651,0,0,0,.018.115A.69.69,0,0,0,65.926,68.149Zm1.4,1.789a1.4,1.4,0,0,0-.326-.288v1.691a.963.963,0,0,0,.4-.292.711.711,0,0,0,.16-.462.61.61,0,0,0-.014-.135c-.009-.042-.018-.085-.026-.129A1,1,0,0,0,67.321,69.939Z" transform="translate(-64.921 -65.617)"/></g></g><g transform="translate(97.221 76.638)"><path class="l" d="M77.512,54.481a10.03,10.03,0,0,0-.012,20.06h.012a10.03,10.03,0,0,0,.012-20.06Z" transform="translate(-66.743 -53.741)"/><path class="f" d="M77.769,75.538A10.769,10.769,0,1,1,88.538,64.769,10.781,10.781,0,0,1,77.769,75.538Zm0-20.062a9.292,9.292,0,1,0,9.292,9.291A9.3,9.3,0,0,0,77.769,55.477Z" transform="translate(-67 -54)"/><path class="j" d="M76.3,56.737A6.558,6.558,0,1,0,82.854,63.3,6.559,6.559,0,0,0,76.3,56.737Z" transform="translate(-65.526 -52.526)"/><path class="f" d="M76.425,70.353a6.928,6.928,0,1,1,6.926-6.928A6.936,6.936,0,0,1,76.425,70.353Zm0-13.118a6.188,6.188,0,1,0,6.188,6.188A6.2,6.2,0,0,0,76.425,57.235Z" transform="translate(-65.655 -52.655)"/><g transform="translate(9.109 7.103)"><path class="f" d="M73.575,64.035a.169.169,0,0,1,.055.026l-.014-.008a2.843,2.843,0,0,0,.352.214,1.3,1.3,0,0,0,.332.112V62.268l-.123-.068c-.149-.082-.292-.166-.428-.258a2.435,2.435,0,0,1-.366-.3,1.8,1.8,0,0,1-.275-.346,1.181,1.181,0,0,1-.154-.4,1.017,1.017,0,0,1-.031-.2c0-.063,0-.131,0-.2a1.383,1.383,0,0,1,.1-.557,1.186,1.186,0,0,1,.289-.4,1.437,1.437,0,0,1,.434-.266,2.159,2.159,0,0,1,.549-.131v-.191a.414.414,0,0,1,.062-.231.247.247,0,0,1,.225-.094h.028a.346.346,0,0,1,.388.346l0,.182a2.254,2.254,0,0,1,.389.1c.134.048.283.108.452.18l-.018-.014a.489.489,0,0,1,.18.1.307.307,0,0,1,.078.2v.042a.506.506,0,0,1-.023.123.59.59,0,0,1-.071.143.538.538,0,0,1-.109.118.211.211,0,0,1-.135.052.618.618,0,0,1-.112-.011.328.328,0,0,1-.118-.057v.006l-.075-.042A2.044,2.044,0,0,0,75,59.926V61.78l.026.014a2.832,2.832,0,0,1,.849.617,1.715,1.715,0,0,1,.394.706,2.445,2.445,0,0,1,.057.285,2.1,2.1,0,0,1,.018.265,1.506,1.506,0,0,1-.1.565,1.37,1.37,0,0,1-.7.745,1.833,1.833,0,0,1-.54.16v.489a.454.454,0,0,1-.055.231.236.236,0,0,1-.225.094h-.042a.392.392,0,0,1-.272-.092.341.341,0,0,1-.1-.268v-.455a2.011,2.011,0,0,1-.631-.163,4.094,4.094,0,0,1-.543-.306.351.351,0,0,1-.1-.115,1.133,1.133,0,0,1-.06-.149v-.04a.327.327,0,0,1,.037-.138.751.751,0,0,1,.092-.149.811.811,0,0,1,.115-.123.189.189,0,0,1,.115-.051.211.211,0,0,1,.132.045c.038.029.075.058.112.092h0a.037.037,0,0,0,.018.008Zm.351-2.886a1.786,1.786,0,0,0,.377.265V59.926a.915.915,0,0,0-.431.211.54.54,0,0,0-.172.422c0,.026,0,.057,0,.089a.652.652,0,0,0,.018.115A.69.69,0,0,0,73.926,61.149Zm1.4,1.789a1.4,1.4,0,0,0-.326-.288v1.691a.963.963,0,0,0,.4-.292.711.711,0,0,0,.16-.462.611.611,0,0,0-.014-.135c-.009-.042-.018-.085-.026-.129A1,1,0,0,0,75.321,62.939Z" transform="translate(-72.921 -58.617)"/></g></g></g></svg>