<svg xmlns="http://www.w3.org/2000/svg" width="31.031" height="25.5" viewBox="0 0 31.031 25.5"><defs><style>.a{fill:none;stroke:#fafafa;stroke-linecap:round;stroke-linejoin:round;stroke-width:1.5px;}</style></defs><path class="a" d="M30.532,9.319a12.166,12.166,0,0,1-3.481.955,6.081,6.081,0,0,0,2.665-3.352,12.155,12.155,0,0,1-3.848,1.469,6.062,6.062,0,0,0-10.323,5.525A17.207,17.207,0,0,1,3.057,7.586a6.069,6.069,0,0,0,1.875,8.09,6.027,6.027,0,0,1-2.744-.759v.077a6.064,6.064,0,0,0,4.858,5.941,6.05,6.05,0,0,1-2.737.1A6.072,6.072,0,0,0,9.97,25.248,12.15,12.15,0,0,1,2.446,27.84,12.018,12.018,0,0,1,1,27.756a17.14,17.14,0,0,0,9.287,2.722c11.145,0,17.24-9.233,17.24-17.237,0-.264-.007-.527-.018-.784A12.313,12.313,0,0,0,30.532,9.319Z" transform="translate(-0.251 -5.728)"/></svg>