<svg xmlns="http://www.w3.org/2000/svg" xmlns:xlink="http://www.w3.org/1999/xlink" width="120" height="120" viewBox="0 0 120 120"><defs><style>.a{fill:#00c379;}.b{fill:#673ab7;}.c{fill:#f2ebff;}.d,.k{fill:#fff;}.e{fill:#88ae45;}.f{fill:#472b29;}.g{fill:#c0d078;}.h{fill:#fbcd59;}.i{fill:#f1bc19;}.j{opacity:0.4;}.k{font-size:24px;font-family:IRANSans-Bold, IRANSans;font-weight:700;}.l{filter:url(#a);}</style><filter id="a" x="15.377" y="30.812" width="89.245" height="62.375" filterUnits="userSpaceOnUse"><feOffset dy="2" input="SourceAlpha"/><feGaussianBlur stdDeviation="1" result="b"/><feFlood flood-opacity="0.639"/><feComposite operator="in" in2="b"/><feComposite in="SourceGraphic"/></filter></defs><g transform="translate(-11 -11)"><path class="a" d="M14.077,27a3.077,3.077,0,1,0,3.077,3.077A3.077,3.077,0,0,0,14.077,27Z" transform="translate(0 8.615)"/><path class="b" d="M77.538,12a1.538,1.538,0,1,0,1.538,1.538A1.538,1.538,0,0,0,77.538,12Z" transform="translate(35 0.538)"/><path class="c" d="M69.923,13a56.923,56.923,0,1,0,56.923,56.923A56.923,56.923,0,0,0,69.923,13Z" transform="translate(1.077 1.077)"/><path class="b" d="M85.154,11a6.154,6.154,0,1,0,6.154,6.154A6.154,6.154,0,0,0,85.154,11Z" transform="translate(36.615 0)"/><path class="a" d="M88.077,22a3.077,3.077,0,1,0,3.077,3.077A3.077,3.077,0,0,0,88.077,22Z" transform="translate(39.846 5.923)"/><path class="b" d="M118.692,82.077a3.077,3.077,0,1,0,3.077,3.077A3.077,3.077,0,0,0,118.692,82.077ZM17.154,59a6.154,6.154,0,1,0,6.154,6.154A6.154,6.154,0,0,0,17.154,59Z" transform="translate(0 25.846)"/><path class="a" d="M26.077,85a3.077,3.077,0,1,0,3.077,3.077A3.077,3.077,0,0,0,26.077,85Z" transform="translate(6.462 39.846)"/><path class="d" d="M19.846,51a3.846,3.846,0,1,0,3.846,3.846A3.846,3.846,0,0,0,19.846,51Z" transform="translate(2.692 21.538)"/><path class="b" d="M21.538,66a1.538,1.538,0,1,0,1.538,1.538A1.538,1.538,0,0,0,21.538,66Z" transform="translate(4.846 29.615)"/><path class="d" d="M80.538,33a1.538,1.538,0,1,0,1.538,1.538A1.538,1.538,0,0,0,80.538,33Z" transform="translate(36.615 11.846)"/><g transform="translate(26.385 38.692)"><path class="e" d="M89.521,31.434c2.04-.515,4.132.731,4.432,1.915l8.274,32.7c.732,2.892-.515,4.983-2.554,5.5L34.512,88.031a3.826,3.826,0,0,1-3.3-.706" transform="translate(-15.503 -27.753)"/><path class="f" d="M33.966,89.691A4.947,4.947,0,0,1,30.9,88.625a1.141,1.141,0,1,1,1.408-1.8,2.667,2.667,0,0,0,2.318.5L99.791,70.851a2.362,2.362,0,0,0,1.577-1.262,4.119,4.119,0,0,0,.152-2.851L93.246,34.032a1.81,1.81,0,0,0-.954-.849,3.135,3.135,0,0,0-2.089-.24,1.142,1.142,0,1,1-.56-2.214,5.368,5.368,0,0,1,3.648.4,3.884,3.884,0,0,1,2.171,2.343l8.274,32.706a6.349,6.349,0,0,1-.323,4.434,4.642,4.642,0,0,1-3.058,2.454L35.191,89.54A5.211,5.211,0,0,1,33.966,89.691Z" transform="translate(-15.903 -28.152)"/><path class="g" d="M95.932,69.817,37.175,84.676a7.108,7.108,0,0,1-8.606-5.129L21.958,53.419a7.1,7.1,0,0,1,5.131-8.6L85.846,29.957a7.108,7.108,0,0,1,8.606,5.129l6.611,26.128A7.1,7.1,0,0,1,95.932,69.817Z" transform="translate(-20.6 -28.6)"/><path class="f" d="M35.838,86.432a8.266,8.266,0,0,1-7.975-6.209L21.252,54.1a8.236,8.236,0,0,1,5.958-9.991L85.966,29.251a8.236,8.236,0,0,1,9.994,5.955l6.611,26.125a8.237,8.237,0,0,1-5.957,9.991h0L37.857,86.18A8.208,8.208,0,0,1,35.838,86.432ZM87.985,31.283a5.942,5.942,0,0,0-1.457.182L27.772,46.322a5.962,5.962,0,0,0-4.3,7.217l6.611,26.125a5.96,5.96,0,0,0,7.218,4.3L96.054,69.108a5.948,5.948,0,0,0,4.3-7.217L93.748,35.766A5.953,5.953,0,0,0,87.985,31.283Zm8.351,38.934h0Z" transform="translate(-21 -29)"/><path class="e" d="M68.967,37.611l-40.2,10.166a4.5,4.5,0,0,1-3.057,5.574l4.822,19.058a4.5,4.5,0,0,1,5.342,3.452L90,62.174A4.5,4.5,0,0,1,93.054,56.6L88.233,37.54h0a4.5,4.5,0,0,1-5.34-3.449L78.03,35.32" transform="translate(-18.467 -26.258)"/><path class="f" d="M36.054,76.573a.532.532,0,0,1-.514-.4,3.977,3.977,0,0,0-4.7-3.068.53.53,0,0,1-.646-.383L25.375,53.665a.531.531,0,0,1,.383-.645,3.976,3.976,0,0,0,2.675-4.928.532.532,0,0,1,.383-.645l40.2-10.166a.531.531,0,0,1,.263,1.029L29.569,48.353a5.043,5.043,0,0,1-3.04,5.535l4.578,18.091a5.063,5.063,0,0,1,5.309,3.429l53.148-13.44a5.3,5.3,0,0,1,.577-3.366A4.717,4.717,0,0,1,92.6,56.429L88.026,38.339a4.718,4.718,0,0,1-3.2-.738,5.3,5.3,0,0,1-2.109-2.688l-4.371,1.108a.527.527,0,0,1-.646-.383.533.533,0,0,1,.383-.646l4.86-1.229a.531.531,0,0,1,.646.383,3.981,3.981,0,0,0,4.7,3.068.53.53,0,0,1,.646.383l4.823,19.058a.531.531,0,0,1-.383.645,3.628,3.628,0,0,0-2.3,1.814,4.273,4.273,0,0,0-.374,3.115.531.531,0,0,1-.383.645L36.185,76.561A.768.768,0,0,1,36.054,76.573Z" transform="translate(-18.653 -26.444)"/><g transform="translate(51.782 10.133)"><path class="f" d="M55.189,36.877a.531.531,0,0,1-.131-1.046l.906-.229a.531.531,0,0,1,.263,1.029l-.906.229A.5.5,0,0,1,55.189,36.877Z" transform="translate(-54.658 -35.586)"/></g><g transform="translate(31.501 19.309)"><path class="g" d="M50.7,41.9a8.877,8.877,0,1,0,8.88,8.877A8.878,8.878,0,0,0,50.7,41.9Z" transform="translate(-41.29 -41.364)"/><path class="f" d="M50.888,60.365a9.412,9.412,0,1,1,2.306-.288A9.429,9.429,0,0,1,50.888,60.365ZM50.9,42.607a8.359,8.359,0,1,0,4.262,1.182A8.358,8.358,0,0,0,50.9,42.607Z" transform="translate(-41.476 -41.551)"/></g><g transform="translate(20.698 20.695)"><path class="g" d="M37.6,48.306a2.8,2.8,0,1,0,2.8,2.8,2.8,2.8,0,0,0-2.8-2.8Z" transform="translate(-34.268 -39.299)"/><path class="f" d="M37.783,54.628a3.337,3.337,0,1,1,.823-.1A3.484,3.484,0,0,1,37.783,54.628Zm.011-5.611a2.28,2.28,0,0,0-.563.072,2.273,2.273,0,1,0,2.763,1.645v0a2.248,2.248,0,0,0-1.038-1.394A2.279,2.279,0,0,0,37.794,49.018Z" transform="translate(-34.454 -39.486)"/><g transform="translate(33.53)"><path class="g" d="M59.4,42.8a2.8,2.8,0,1,0,2.8,2.8,2.8,2.8,0,0,0-2.8-2.8Z" transform="translate(-56.063 -42.266)"/><path class="f" d="M59.586,49.114a3.333,3.333,0,1,1,3.231-4.149h0A3.341,3.341,0,0,1,60.4,49.014,3.48,3.48,0,0,1,59.586,49.114Zm0-5.606a2.25,2.25,0,0,0-.558.071,2.272,2.272,0,1,0,2.762,1.646h0A2.271,2.271,0,0,0,59.581,43.508Z" transform="translate(-56.249 -42.451)"/></g></g></g><g transform="translate(78.692 65.766)"><path class="h" d="M76.408,47.128A10.206,10.206,0,1,0,86.614,57.334,10.206,10.206,0,0,0,76.408,47.128Z" transform="translate(-48.968 -46.313)"/><path class="f" d="M76.694,68.643A11.022,11.022,0,1,1,87.716,57.621,11.034,11.034,0,0,1,76.694,68.643Zm0-20.412a9.388,9.388,0,1,0,9.388,9.389A9.4,9.4,0,0,0,76.694,48.23Z" transform="translate(-49.254 -46.598)"/><path class="i" d="M75.172,49.424A6.674,6.674,0,1,0,81.846,56.1,6.674,6.674,0,0,0,75.172,49.424Z" transform="translate(-47.732 -45.076)"/><path class="f" d="M75.315,63.321a7.081,7.081,0,1,1,7.082-7.08A7.088,7.088,0,0,1,75.315,63.321Zm0-13.345a6.264,6.264,0,1,0,6.265,6.265A6.272,6.272,0,0,0,75.315,49.976Z" transform="translate(-47.875 -45.219)"/><path class="h" d="M65.737,54.753A10.206,10.206,0,1,0,75.943,64.959,10.206,10.206,0,0,0,65.737,54.753Z" transform="translate(-54.714 -42.207)"/><path class="f" d="M66.023,76.957A11.372,11.372,0,1,1,77.046,65.589,11.212,11.212,0,0,1,66.023,76.957Zm0-21.1a9.388,9.388,0,1,0,9.389,9.388A9.4,9.4,0,0,0,66.023,55.858Z" transform="translate(-55 -42.492)"/><g transform="translate(3.942 15.671)"><path class="i" d="M64.5,57.05a6.674,6.674,0,1,0,6.674,6.674A6.674,6.674,0,0,0,64.5,57.05Z" transform="translate(-57.419 -56.641)"/><path class="f" d="M64.644,70.947a7.082,7.082,0,1,1,7.082-7.082A7.089,7.089,0,0,1,64.644,70.947Zm0-13.346a6.265,6.265,0,1,0,6.265,6.265A6.272,6.272,0,0,0,64.644,57.6Z" transform="translate(-57.562 -56.784)"/></g><g transform="translate(9.491 19.025)"><path class="f" d="M61.832,64.476a.143.143,0,0,1,.055.028l-.015-.006a2.934,2.934,0,0,0,.36.217,1.326,1.326,0,0,0,.338.112V62.679l-.125-.069c-.152-.083-.3-.171-.435-.263a2.276,2.276,0,0,1-.372-.3,1.856,1.856,0,0,1-.28-.351,1.2,1.2,0,0,1-.155-.408.943.943,0,0,1-.031-.208c0-.066,0-.134,0-.208a1.4,1.4,0,0,1,.106-.566,1.229,1.229,0,0,1,.294-.411,1.416,1.416,0,0,1,.442-.269,2.249,2.249,0,0,1,.558-.134V59.3a.439.439,0,0,1,.062-.235.248.248,0,0,1,.228-.1h.028a.352.352,0,0,1,.394.351l-.006.186a2.388,2.388,0,0,1,.4.108c.135.049.289.109.46.183l-.02-.012a.515.515,0,0,1,.183.1.3.3,0,0,1,.08.2v.042a.409.409,0,0,1-.025.125.616.616,0,0,1-.072.146.643.643,0,0,1-.111.122.216.216,0,0,1-.138.052.52.52,0,0,1-.114-.011.331.331,0,0,1-.122-.058v.006l-.075-.042a2.032,2.032,0,0,0-.442-.165v1.886l.028.015a2.861,2.861,0,0,1,.863.629,1.733,1.733,0,0,1,.4.72,2.293,2.293,0,0,1,.058.289,2.2,2.2,0,0,1,.018.269,1.484,1.484,0,0,1-.1.574,1.423,1.423,0,0,1-.283.446,1.439,1.439,0,0,1-.432.311,1.779,1.779,0,0,1-.549.162v.5a.467.467,0,0,1-.055.235.241.241,0,0,1-.228.1h-.042a.4.4,0,0,1-.277-.094.348.348,0,0,1-.1-.272V65.6a2.124,2.124,0,0,1-.643-.165,4.13,4.13,0,0,1-.552-.311.4.4,0,0,1-.1-.118,1.02,1.02,0,0,1-.062-.152v-.042a.333.333,0,0,1,.037-.14.845.845,0,0,1,.212-.277.192.192,0,0,1,.118-.052.215.215,0,0,1,.135.046,1.1,1.1,0,0,1,.112.094h.011a.053.053,0,0,0,.02.006Zm.354-2.937a1.726,1.726,0,0,0,.385.269V60.295a.925.925,0,0,0-.438.214.546.546,0,0,0-.177.428c0,.028,0,.057,0,.089a.681.681,0,0,0,.018.118A.722.722,0,0,0,62.186,61.539Zm1.422,1.82a1.423,1.423,0,0,0-.332-.294v1.722a.993.993,0,0,0,.4-.3.724.724,0,0,0,.162-.469.64.64,0,0,0-.014-.138c-.009-.042-.018-.085-.028-.131A.955.955,0,0,0,63.607,63.359Z" transform="translate(-61.169 -58.964)"/></g><g transform="translate(25.703 7.292)"><path class="f" d="M72.37,56.85a.143.143,0,0,1,.055.028l-.015-.006a2.934,2.934,0,0,0,.36.217,1.327,1.327,0,0,0,.338.112V55.053l-.125-.069c-.152-.083-.3-.171-.435-.263a2.275,2.275,0,0,1-.372-.3,1.856,1.856,0,0,1-.28-.351,1.212,1.212,0,0,1-.155-.408.942.942,0,0,1-.031-.208c0-.066,0-.134,0-.208a1.4,1.4,0,0,1,.106-.566,1.228,1.228,0,0,1,.294-.411A1.416,1.416,0,0,1,72.549,52a2.182,2.182,0,0,1,.558-.134V51.67a.439.439,0,0,1,.062-.235.248.248,0,0,1,.228-.1h.028a.352.352,0,0,1,.394.351l-.006.186a2.39,2.39,0,0,1,.4.108c.135.049.289.109.46.183l-.02-.012a.516.516,0,0,1,.183.1.305.305,0,0,1,.08.2V52.5a.409.409,0,0,1-.025.125.616.616,0,0,1-.072.146.643.643,0,0,1-.111.122.216.216,0,0,1-.138.052.52.52,0,0,1-.114-.011.331.331,0,0,1-.122-.058v.006l-.075-.042a2.033,2.033,0,0,0-.442-.165V54.56l.028.015a2.861,2.861,0,0,1,.863.629,1.733,1.733,0,0,1,.4.72,2.294,2.294,0,0,1,.058.289,2.195,2.195,0,0,1,.018.269,1.484,1.484,0,0,1-.1.574,1.423,1.423,0,0,1-.283.446,1.439,1.439,0,0,1-.432.311,1.778,1.778,0,0,1-.549.162v.5a.467.467,0,0,1-.055.235.241.241,0,0,1-.228.1h-.042a.4.4,0,0,1-.277-.094.348.348,0,0,1-.1-.272v-.463a2.124,2.124,0,0,1-.643-.165,4.131,4.131,0,0,1-.552-.311.4.4,0,0,1-.1-.118,1.019,1.019,0,0,1-.062-.152v-.048a.358.358,0,0,1,.037-.14.714.714,0,0,1,.094-.152.706.706,0,0,1,.118-.125.192.192,0,0,1,.118-.052.215.215,0,0,1,.135.046,1.1,1.1,0,0,1,.112.094h.011a.053.053,0,0,0,.02.006Zm.354-2.937a1.726,1.726,0,0,0,.385.269V52.669a.925.925,0,0,0-.438.214.546.546,0,0,0-.177.428c0,.028,0,.057,0,.089a.681.681,0,0,0,.018.118A.716.716,0,0,0,72.724,53.913Zm1.422,1.822a1.423,1.423,0,0,0-.332-.294v1.722a.993.993,0,0,0,.4-.3.724.724,0,0,0,.162-.469.639.639,0,0,0-.014-.138c-.009-.042-.018-.085-.028-.131A.955.955,0,0,0,74.145,55.735Z" transform="translate(-71.707 -51.338)"/></g></g><path class="j" d="M69.923,13a56.923,56.923,0,1,0,56.923,56.923A56.923,56.923,0,0,0,69.923,13Z" transform="translate(1.077 1.077)"/><g class="l" transform="matrix(1, 0, 0, 1, 11, 11)"><text class="k" transform="matrix(0.97, -0.26, 0.26, 0.97, 61.55, 65.8)"><tspan x="-37.779" y="0">به زودی</tspan></text></g></g></svg>