<svg xmlns="http://www.w3.org/2000/svg" width="25.5" height="25.5" viewBox="0 0 25.5 25.5"><defs><style>.a,.b{fill:none;stroke:#fafafa;stroke-width:1.5px;}.b{stroke-linejoin:round;}</style></defs><g transform="translate(-2.25 -2.25)"><path class="a" d="M16.328,14.557c-.261-.62-.527-.536-.725-.546S15.2,14,14.987,14a1.191,1.191,0,0,0-.859.4A3.547,3.547,0,0,0,13,17.051a6.148,6.148,0,0,0,1.315,3.29,14.3,14.3,0,0,0,5.5,4.8,18.847,18.847,0,0,0,1.836.67,4.47,4.47,0,0,0,2.029.126,3.318,3.318,0,0,0,2.174-1.512,2.624,2.624,0,0,0,.188-1.512c-.081-.133-.3-.212-.617-.371s-1.906-.929-2.2-1.034-.51-.159-.725.159-.832,1.034-1.019,1.247-.376.239-.7.08a8.81,8.81,0,0,1-2.59-1.579,9.584,9.584,0,0,1-1.792-2.2c-.188-.319-.02-.49.141-.649.145-.143.322-.371.483-.557a2.144,2.144,0,0,0,.322-.531.58.58,0,0,0-.027-.557C17.241,16.759,16.6,15.195,16.328,14.557Z" transform="translate(-4.545 -5)"/><path class="b" d="M15,3A12,12,0,0,0,4.658,21.085L3,27l6.149-1.523A12,12,0,1,0,15,3Z"/></g></svg>