<svg xmlns="http://www.w3.org/2000/svg" width="120" height="120" viewBox="0 0 120 120"><defs><style>.a{fill:#00c379;}.b{fill:#673ab7;}.c{fill:#ebfff7;}.d{fill:#fff;}.e{fill:#48bed8;}.f{fill:#472b29;}.g{fill:#fffef4;}</style></defs><g transform="translate(-11 -11)"><path class="a" d="M14.077,27a3.077,3.077,0,1,0,3.077,3.077A3.077,3.077,0,0,0,14.077,27Z" transform="translate(0 8.615)"/><path class="b" d="M77.538,12a1.538,1.538,0,1,0,1.538,1.538A1.538,1.538,0,0,0,77.538,12Z" transform="translate(35 0.538)"/><path class="c" d="M69.923,13a56.923,56.923,0,1,0,56.923,56.923A56.923,56.923,0,0,0,69.923,13Z" transform="translate(1.077 1.077)"/><path class="b" d="M85.154,11a6.154,6.154,0,1,0,6.154,6.154A6.154,6.154,0,0,0,85.154,11Z" transform="translate(36.615 0)"/><path class="a" d="M88.077,22a3.077,3.077,0,1,0,3.077,3.077A3.077,3.077,0,0,0,88.077,22Z" transform="translate(39.846 5.923)"/><path class="b" d="M118.692,82.077a3.077,3.077,0,1,0,3.077,3.077A3.077,3.077,0,0,0,118.692,82.077ZM17.154,59a6.154,6.154,0,1,0,6.154,6.154A6.154,6.154,0,0,0,17.154,59Z" transform="translate(0 25.846)"/><path class="a" d="M26.077,85a3.077,3.077,0,1,0,3.077,3.077A3.077,3.077,0,0,0,26.077,85Z" transform="translate(6.462 39.846)"/><path class="d" d="M19.846,51a3.846,3.846,0,1,0,3.846,3.846A3.846,3.846,0,0,0,19.846,51Z" transform="translate(2.692 21.538)"/><path class="b" d="M21.538,66a1.538,1.538,0,1,0,1.538,1.538A1.538,1.538,0,0,0,21.538,66Z" transform="translate(4.846 29.615)"/><path class="d" d="M80.538,33a1.538,1.538,0,1,0,1.538,1.538A1.538,1.538,0,0,0,80.538,33Z" transform="translate(36.615 11.846)"/><g transform="translate(35.615 35.615)"><path class="e" d="M38.931,96.315A11.243,11.243,0,0,1,27.7,85.085V38.931A11.243,11.243,0,0,1,38.931,27.7H85.085A11.243,11.243,0,0,1,96.315,38.931V85.085A11.243,11.243,0,0,1,85.085,96.315Z" transform="translate(-26.623 -26.623)"/><path class="f" d="M85.462,29.154A10.166,10.166,0,0,1,95.615,39.308V85.462A10.166,10.166,0,0,1,85.462,95.615H39.308A10.166,10.166,0,0,1,29.154,85.462V39.308A10.166,10.166,0,0,1,39.308,29.154H85.462m0-2.154H39.308A12.344,12.344,0,0,0,27,39.308V85.462A12.344,12.344,0,0,0,39.308,97.769H85.462A12.344,12.344,0,0,0,97.769,85.462V39.308A12.344,12.344,0,0,0,85.462,27Z" transform="translate(-27 -27)"/></g><g transform="translate(42.538 42.538)"><path class="g" d="M88.423,56.692V81.5A6.943,6.943,0,0,1,81.5,88.423H38.423A6.943,6.943,0,0,1,31.5,81.5V38.423A6.943,6.943,0,0,1,38.423,31.5H81.5a6.943,6.943,0,0,1,6.923,6.923V56.692" transform="translate(-31.5 -31.5)"/></g><g transform="translate(98.692 59.462)"><path class="f" d="M68.769,50A.77.77,0,0,1,68,49.231V43.269a.769.769,0,1,1,1.538,0v5.962A.77.77,0,0,1,68.769,50Z" transform="translate(-68 -42.5)"/></g><g transform="translate(98.692 51.769)"><path class="f" d="M68.769,42.115A.77.77,0,0,1,68,41.346V38.269a.769.769,0,1,1,1.538,0v3.077A.77.77,0,0,1,68.769,42.115Z" transform="translate(-68 -37.5)"/></g><g transform="translate(41.769 41.769)"><path class="f" d="M81.769,89.462H38.692A7.7,7.7,0,0,1,31,81.769V38.692A7.7,7.7,0,0,1,38.692,31H77.731a.769.769,0,0,1,0,1.538H38.692a6.16,6.16,0,0,0-6.154,6.154V81.769a6.16,6.16,0,0,0,6.154,6.154H81.769a6.16,6.16,0,0,0,6.154-6.154V59.654a.769.769,0,0,1,1.538,0V81.769A7.7,7.7,0,0,1,81.769,89.462Z" transform="translate(-31 -31)"/></g><g transform="translate(49.903 53.948)"><path class="e" d="M41.175,51.7,37,47.567a28.51,28.51,0,0,1,40,.083l-4.166,4.128A22.791,22.791,0,0,0,41.175,51.7Zm15.808,4.822a11.349,11.349,0,0,1,7.851,3.135L69,55.533a17.1,17.1,0,0,0-24-.051l4.175,4.137A11.357,11.357,0,0,1,56.983,56.525Zm.126,7.5a3.528,3.528,0,1,0,3.562,3.528A3.546,3.546,0,0,0,57.109,64.027Z" transform="translate(-35.903 -38.647)"/><path class="f" d="M57.493,72.122a4.3,4.3,0,1,1,4.329-4.3A4.318,4.318,0,0,1,57.493,72.122Zm0-7.057a2.759,2.759,0,1,0,2.791,2.76A2.779,2.779,0,0,0,57.493,65.065ZM65.229,61l-.542-.515a10.626,10.626,0,0,0-14.6-.037l-.542.511-5.257-5.209.555-.546a17.877,17.877,0,0,1,25.082.052l.549.545Zm-7.862-4.977a12.088,12.088,0,0,1,7.823,2.849l3.088-3.058a16.344,16.344,0,0,0-21.786-.048l3.1,3.069A12.094,12.094,0,0,1,57.367,56.025Zm15.855-2.9-.542-.526a22.024,22.024,0,0,0-30.588-.072l-.542.522-5.265-5.214.555-.546a29.278,29.278,0,0,1,41.082.088l.549.545ZM57.352,44.847a23.4,23.4,0,0,1,15.854,6.129l3.08-3.049a27.747,27.747,0,0,0-37.8-.082l3.091,3.06A23.408,23.408,0,0,1,57.352,44.847Z" transform="translate(-36.287 -38.916)"/></g></g></svg>